<?xml version="1.0" encoding="utf-8" standalone="no"?>
<!DOCTYPE svg PUBLIC "-//W3C//DTD SVG 1.1//EN"
  "http://www.w3.org/Graphics/SVG/1.1/DTD/svg11.dtd">
<!-- Created with matplotlib (http://matplotlib.org/) -->
<svg height="288pt" version="1.1" viewBox="0 0 576 288" width="576pt" xmlns="http://www.w3.org/2000/svg" xmlns:xlink="http://www.w3.org/1999/xlink">
 <defs>
  <style type="text/css">
*{stroke-linecap:butt;stroke-linejoin:round;}
  </style>
 </defs>
 <g id="figure_1">
  <g id="patch_1">
   <path d="
M0 288
L576 288
L576 0
L0 0
z
" style="fill:#ffffff;"/>
  </g>
  <g id="axes_1">
   <g id="patch_2">
    <path d="
M57.6 259.2
L518.4 259.2
L518.4 28.8
L57.6 28.8
z
" style="fill:#ffffff;"/>
   </g>
   <g id="line2d_1">
    <path clip-path="url(#p050c38148a)" d="
M57.6 224.191
L59.904 216.287
L62.208 224.093
L64.512 225.013
L66.816 224.441
L69.12 225.037
L71.424 226.245
L73.728 226.526
L76.032 227.116
L78.336 227.896
L80.64 228.296
L82.944 229.938
L85.248 227.508
L87.552 232.229
L89.856 232.05
L92.16 230.004
L94.464 229.023
L96.768 231.638
L99.072 230.527
L101.376 230.981
L103.68 231.812
L105.984 232.91
L108.288 231.089
L110.592 231.446
L112.896 231.173
L115.2 237.841
L117.504 234.907
L119.808 233.635
L122.112 238.589
L124.416 231.568
L126.72 231.909
L129.024 236.225
L131.328 232.039
L133.632 231.731
L135.936 237.616
L138.24 233.605
L140.544 231.746
L142.848 231.928
L145.152 237.108
L147.456 232.674
L149.76 232.872
L152.064 238.732
L154.368 237.33
L156.672 233.942
L158.976 237.924
L161.28 238.693
L163.584 235.516
L165.888 232.607
L168.192 233.623
L170.496 233.066
L172.8 233.822
L175.104 237.301
L177.408 233.31
L179.712 234.411
L182.016 237.522
L184.32 234.992
L186.624 234.23
L188.928 235.501
L191.232 233.949
L193.536 234.249
L195.84 241.069
L198.144 239.16
L200.448 236.072
L202.752 237.88
L205.056 234.067
L207.36 234.507
L209.664 234.834
L211.968 233.682
L214.272 234.373
L216.576 236.105
L218.88 235.855
L221.184 234.024
L223.488 235.234
L225.792 234.059
L228.096 235.923
L230.4 234.221
L232.704 237.972
L235.008 238.456
L237.312 235.464
L239.616 240.958
L241.92 234.556
L244.224 241.06
L246.528 234.31
L248.832 234.976
L251.136 233.571
L253.44 237.101
L255.744 235.55
L258.048 242.304
L260.352 238.177
L262.656 240.685
L264.96 234.265
L269.568 235.687
L271.872 234.741
L274.176 238.16
L276.48 233.739
L278.784 235.135
L281.088 235.769
L283.392 235.288
L285.696 237.399
L288 240.87
L290.304 240.278
L292.608 242.145
L294.912 234.236
L297.216 238.545
L299.52 233.978
L301.824 232.883
L304.128 240.117
L306.432 242.072
L308.736 234.188
L311.04 235.078
L313.344 234.841
L315.648 235.233
L317.952 234.754
L320.256 234.807
L322.56 235.072
L324.864 235.836
L327.168 235.508
L329.472 241.618
L331.776 238.083
L334.08 236.899
L336.384 236.426
L338.688 235.604
L340.992 235.693
L343.296 237.479
L345.6 235.31
L347.904 240.185
L350.208 236.343
L354.816 235.105
L357.12 235.109
L359.424 241.362
L361.728 236.526
L364.032 234.853
L366.336 233.398
L368.64 236.837
L370.944 235.358
L373.248 235.582
L375.552 239.679
L377.856 234.97
L380.16 236.388
L382.464 238.146
L384.768 236.623
L387.072 234.92
L389.376 241.328
L391.68 236.397
L393.984 235.443
L396.288 235.379
L398.592 236.099
L400.896 233.873
L403.2 240.443
L405.504 235.757
L407.808 236.362
L412.416 235.227
L414.72 237.29
L417.024 236.339
L419.328 237.032
L421.632 235.199
L423.936 235.33
L426.24 237.729
L428.544 240.377
L430.848 242.158
L433.152 235.697
L435.456 235.453
L437.76 240.112
L440.064 236.408
L442.368 241.289
L444.672 240.615
L446.976 237.047
L449.28 237.544
L451.584 235.215
L453.888 240.963
L456.192 242.249
L458.496 238.133
L460.8 236.772
L463.104 239.418
L465.408 240.982
L467.712 236.54
L470.016 236.468
L472.32 235.367
L474.624 240.991
L476.928 236.841
L479.232 238.14
L481.536 236.625
L486.144 236.313
L490.752 236.712
L493.056 243.535
L493.056 243.535" style="fill:none;stroke:#0000ff;stroke-linecap:square;"/>
   </g>
   <g id="line2d_2">
    <path clip-path="url(#p050c38148a)" d="
M57.6 130.702
L59.904 61.1789
L64.512 151.517
L66.816 110.901
L69.12 186.255
L71.424 172.488
L73.728 192.78
L76.032 176.36
L78.336 192.85
L80.64 128.863
L82.944 197.961
L85.248 160.939
L87.552 173.945
L89.856 191.314
L92.16 177.814
L94.464 192.81
L96.768 193.302
L99.072 189.98
L101.376 162.647
L103.68 145.202
L105.984 171.431
L108.288 181.296
L110.592 196.666
L112.896 168.876
L115.2 194.856
L117.504 147.826
L119.808 172.253
L122.112 175.257
L124.416 192.26
L126.72 167.933
L129.024 181.253
L131.328 192.054
L133.632 196.668
L135.936 192.109
L138.24 183.611
L140.544 201.757
L142.848 138.94
L145.152 198.844
L147.456 201.954
L149.76 178.673
L152.064 190.947
L154.368 193.404
L156.672 174.543
L158.976 186.472
L161.28 177.607
L163.584 177.2
L165.888 172.092
L168.192 174.219
L170.496 202.692
L172.8 200.308
L177.408 185.1
L179.712 198.034
L182.016 199.089
L184.32 201.28
L186.624 202.916
L188.928 194
L191.232 182.148
L193.536 174.314
L195.84 185.961
L198.144 203.237
L200.448 199.702
L202.752 202.306
L205.056 201.57
L207.36 193.669
L209.664 204.368
L211.968 204.509
L214.272 189.714
L216.576 183.444
L218.88 203.245
L221.184 188.367
L223.488 182.739
L225.792 200.777
L228.096 204.03
L230.4 203.233
L232.704 201.349
L235.008 205.697
L237.312 206.281
L239.616 205.473
L241.92 203.556
L244.224 207.321
L246.528 208.778
L248.832 205.824
L251.136 193.807
L253.44 198.533
L255.744 191.479
L258.048 202.077
L260.352 190.565
L262.656 203.813
L264.96 191.526
L267.264 203.193
L269.568 206.271
L271.872 195.111
L274.176 201.5
L276.48 193.73
L278.784 204.335
L281.088 179.508
L283.392 191.83
L285.696 186.898
L288 201.448
L290.304 202.364
L292.608 204.799
L294.912 193.907
L297.216 207.676
L299.52 208.737
L301.824 209.486
L304.128 193.096
L306.432 195.216
L308.736 212.81
L311.04 206.311
L313.344 196.917
L315.648 213.075
L317.952 214.893
L320.256 210.633
L322.56 208.754
L324.864 212.577
L327.168 210.638
L329.472 213.861
L331.776 209.315
L334.08 211.82
L336.384 207.413
L338.688 211.599
L340.992 216.46
L343.296 216.63
L345.6 215.68
L347.904 210.053
L350.208 217.478
L352.512 200.511
L354.816 216.112
L357.12 217.203
L359.424 216.027
L361.728 214.285
L364.032 217.519
L366.336 214.558
L368.64 202.868
L370.944 215.769
L373.248 212.369
L375.552 205.247
L377.856 215.633
L380.16 206.996
L382.464 219.303
L384.768 207.81
L387.072 218.27
L389.376 209.135
L391.68 205.771
L393.984 207.266
L396.288 208.086
L398.592 219.041
L400.896 216.806
L403.2 220.146
L405.504 208.916
L407.808 216.438
L410.112 214.478
L412.416 205.625
L414.72 203.854
L417.024 195.402
L419.328 210.082
L421.632 208.191
L423.936 210.937
L426.24 195.784
L428.544 209.077
L430.848 199.762
L435.456 216.636
L437.76 215.685
L440.064 215.651
L442.368 215.757
L444.672 219.418
L446.976 218.904
L449.28 223.389
L451.584 215.405
L453.888 223.133
L456.192 216.687
L458.496 222.405
L460.8 223.802
L463.104 221.26
L465.408 224.444
L467.712 223.196
L470.016 223.723
L472.32 218.686
L474.624 215.846
L476.928 221.252
L479.232 222.73
L481.536 223.217
L483.84 223.587
L486.144 221.192
L488.448 223.617
L490.752 222.356
L493.056 224.813
L493.056 224.813" style="fill:none;stroke:#008000;stroke-linecap:square;"/>
   </g>
   <g id="patch_3">
    <path d="
M57.6 259.2
L57.6 28.8" style="fill:none;stroke:#000000;stroke-linecap:square;stroke-linejoin:miter;"/>
   </g>
   <g id="patch_4">
    <path d="
M57.6 259.2
L518.4 259.2" style="fill:none;stroke:#000000;stroke-linecap:square;stroke-linejoin:miter;"/>
   </g>
   <g id="patch_5">
    <path d="
M518.4 259.2
L518.4 28.8" style="fill:none;stroke:#000000;stroke-linecap:square;stroke-linejoin:miter;"/>
   </g>
   <g id="patch_6">
    <path d="
M57.6 28.8
L518.4 28.8" style="fill:none;stroke:#000000;stroke-linecap:square;stroke-linejoin:miter;"/>
   </g>
   <g id="matplotlib.axis_1">
    <g id="xtick_1">
     <g id="line2d_3">
      <defs>
       <path d="
M0 0
L0 -4" id="mc7db9fdffb" style="stroke:#000000;stroke-width:0.5;"/>
      </defs>
      <g>
       <use style="stroke:#000000;stroke-width:0.5;" x="57.6" xlink:href="#mc7db9fdffb" y="259.2"/>
      </g>
     </g>
     <g id="line2d_4">
      <defs>
       <path d="
M0 0
L0 4" id="m5a7d422ac3" style="stroke:#000000;stroke-width:0.5;"/>
      </defs>
      <g>
       <use style="stroke:#000000;stroke-width:0.5;" x="57.6" xlink:href="#m5a7d422ac3" y="28.8"/>
      </g>
     </g>
     <g id="text_1">
      <!-- 0 -->
      <defs>
       <path d="
M31.7812 66.4062
Q24.1719 66.4062 20.3281 58.9062
Q16.5 51.4219 16.5 36.375
Q16.5 21.3906 20.3281 13.8906
Q24.1719 6.39062 31.7812 6.39062
Q39.4531 6.39062 43.2812 13.8906
Q47.125 21.3906 47.125 36.375
Q47.125 51.4219 43.2812 58.9062
Q39.4531 66.4062 31.7812 66.4062
M31.7812 74.2188
Q44.0469 74.2188 50.5156 64.5156
Q56.9844 54.8281 56.9844 36.375
Q56.9844 17.9688 50.5156 8.26562
Q44.0469 -1.42188 31.7812 -1.42188
Q19.5312 -1.42188 13.0625 8.26562
Q6.59375 17.9688 6.59375 36.375
Q6.59375 54.8281 13.0625 64.5156
Q19.5312 74.2188 31.7812 74.2188" id="BitstreamVeraSans-Roman-30"/>
      </defs>
      <g transform="translate(55.08046875 270.7984375)scale(0.1 -0.1)">
       <use xlink:href="#BitstreamVeraSans-Roman-30"/>
      </g>
     </g>
    </g>
    <g id="xtick_2">
     <g id="line2d_5">
      <g>
       <use style="stroke:#000000;stroke-width:0.5;" x="172.8" xlink:href="#mc7db9fdffb" y="259.2"/>
      </g>
     </g>
     <g id="line2d_6">
      <g>
       <use style="stroke:#000000;stroke-width:0.5;" x="172.8" xlink:href="#m5a7d422ac3" y="28.8"/>
      </g>
     </g>
     <g id="text_2">
      <!-- 50 -->
      <defs>
       <path d="
M10.7969 72.9062
L49.5156 72.9062
L49.5156 64.5938
L19.8281 64.5938
L19.8281 46.7344
Q21.9688 47.4688 24.1094 47.8281
Q26.2656 48.1875 28.4219 48.1875
Q40.625 48.1875 47.75 41.5
Q54.8906 34.8125 54.8906 23.3906
Q54.8906 11.625 47.5625 5.09375
Q40.2344 -1.42188 26.9062 -1.42188
Q22.3125 -1.42188 17.5469 -0.640625
Q12.7969 0.140625 7.71875 1.70312
L7.71875 11.625
Q12.1094 9.23438 16.7969 8.0625
Q21.4844 6.89062 26.7031 6.89062
Q35.1562 6.89062 40.0781 11.3281
Q45.0156 15.7656 45.0156 23.3906
Q45.0156 31 40.0781 35.4375
Q35.1562 39.8906 26.7031 39.8906
Q22.75 39.8906 18.8125 39.0156
Q14.8906 38.1406 10.7969 36.2812
z
" id="BitstreamVeraSans-Roman-35"/>
      </defs>
      <g transform="translate(167.15546875 270.7984375)scale(0.1 -0.1)">
       <use xlink:href="#BitstreamVeraSans-Roman-35"/>
       <use x="63.623046875" xlink:href="#BitstreamVeraSans-Roman-30"/>
      </g>
     </g>
    </g>
    <g id="xtick_3">
     <g id="line2d_7">
      <g>
       <use style="stroke:#000000;stroke-width:0.5;" x="288.0" xlink:href="#mc7db9fdffb" y="259.2"/>
      </g>
     </g>
     <g id="line2d_8">
      <g>
       <use style="stroke:#000000;stroke-width:0.5;" x="288.0" xlink:href="#m5a7d422ac3" y="28.8"/>
      </g>
     </g>
     <g id="text_3">
      <!-- 100 -->
      <defs>
       <path d="
M12.4062 8.29688
L28.5156 8.29688
L28.5156 63.9219
L10.9844 60.4062
L10.9844 69.3906
L28.4219 72.9062
L38.2812 72.9062
L38.2812 8.29688
L54.3906 8.29688
L54.3906 0
L12.4062 0
z
" id="BitstreamVeraSans-Roman-31"/>
      </defs>
      <g transform="translate(279.3375 270.7984375)scale(0.1 -0.1)">
       <use xlink:href="#BitstreamVeraSans-Roman-31"/>
       <use x="63.623046875" xlink:href="#BitstreamVeraSans-Roman-30"/>
       <use x="127.24609375" xlink:href="#BitstreamVeraSans-Roman-30"/>
      </g>
     </g>
    </g>
    <g id="xtick_4">
     <g id="line2d_9">
      <g>
       <use style="stroke:#000000;stroke-width:0.5;" x="403.2" xlink:href="#mc7db9fdffb" y="259.2"/>
      </g>
     </g>
     <g id="line2d_10">
      <g>
       <use style="stroke:#000000;stroke-width:0.5;" x="403.2" xlink:href="#m5a7d422ac3" y="28.8"/>
      </g>
     </g>
     <g id="text_4">
      <!-- 150 -->
      <g transform="translate(394.5375 270.7984375)scale(0.1 -0.1)">
       <use xlink:href="#BitstreamVeraSans-Roman-31"/>
       <use x="63.623046875" xlink:href="#BitstreamVeraSans-Roman-35"/>
       <use x="127.24609375" xlink:href="#BitstreamVeraSans-Roman-30"/>
      </g>
     </g>
    </g>
    <g id="xtick_5">
     <g id="line2d_11">
      <g>
       <use style="stroke:#000000;stroke-width:0.5;" x="518.4" xlink:href="#mc7db9fdffb" y="259.2"/>
      </g>
     </g>
     <g id="line2d_12">
      <g>
       <use style="stroke:#000000;stroke-width:0.5;" x="518.4" xlink:href="#m5a7d422ac3" y="28.8"/>
      </g>
     </g>
     <g id="text_5">
      <!-- 200 -->
      <defs>
       <path d="
M19.1875 8.29688
L53.6094 8.29688
L53.6094 0
L7.32812 0
L7.32812 8.29688
Q12.9375 14.1094 22.625 23.8906
Q32.3281 33.6875 34.8125 36.5312
Q39.5469 41.8438 41.4219 45.5312
Q43.3125 49.2188 43.3125 52.7812
Q43.3125 58.5938 39.2344 62.25
Q35.1562 65.9219 28.6094 65.9219
Q23.9688 65.9219 18.8125 64.3125
Q13.6719 62.7031 7.8125 59.4219
L7.8125 69.3906
Q13.7656 71.7812 18.9375 73
Q24.125 74.2188 28.4219 74.2188
Q39.75 74.2188 46.4844 68.5469
Q53.2188 62.8906 53.2188 53.4219
Q53.2188 48.9219 51.5312 44.8906
Q49.8594 40.875 45.4062 35.4062
Q44.1875 33.9844 37.6406 27.2188
Q31.1094 20.4531 19.1875 8.29688" id="BitstreamVeraSans-Roman-32"/>
      </defs>
      <g transform="translate(509.5546875 270.7984375)scale(0.1 -0.1)">
       <use xlink:href="#BitstreamVeraSans-Roman-32"/>
       <use x="63.623046875" xlink:href="#BitstreamVeraSans-Roman-30"/>
       <use x="127.24609375" xlink:href="#BitstreamVeraSans-Roman-30"/>
      </g>
     </g>
    </g>
    <g id="text_6">
     <!-- Epochs -->
     <defs>
      <path d="
M54.8906 33.0156
L54.8906 0
L45.9062 0
L45.9062 32.7188
Q45.9062 40.4844 42.875 44.3281
Q39.8438 48.1875 33.7969 48.1875
Q26.5156 48.1875 22.3125 43.5469
Q18.1094 38.9219 18.1094 30.9062
L18.1094 0
L9.07812 0
L9.07812 75.9844
L18.1094 75.9844
L18.1094 46.1875
Q21.3438 51.125 25.7031 53.5625
Q30.0781 56 35.7969 56
Q45.2188 56 50.0469 50.1719
Q54.8906 44.3438 54.8906 33.0156" id="BitstreamVeraSans-Roman-68"/>
      <path d="
M9.8125 72.9062
L55.9062 72.9062
L55.9062 64.5938
L19.6719 64.5938
L19.6719 43.0156
L54.3906 43.0156
L54.3906 34.7188
L19.6719 34.7188
L19.6719 8.29688
L56.7812 8.29688
L56.7812 0
L9.8125 0
z
" id="BitstreamVeraSans-Roman-45"/>
      <path d="
M48.7812 52.5938
L48.7812 44.1875
Q44.9688 46.2969 41.1406 47.3438
Q37.3125 48.3906 33.4062 48.3906
Q24.6562 48.3906 19.8125 42.8438
Q14.9844 37.3125 14.9844 27.2969
Q14.9844 17.2812 19.8125 11.7344
Q24.6562 6.20312 33.4062 6.20312
Q37.3125 6.20312 41.1406 7.25
Q44.9688 8.29688 48.7812 10.4062
L48.7812 2.09375
Q45.0156 0.34375 40.9844 -0.53125
Q36.9688 -1.42188 32.4219 -1.42188
Q20.0625 -1.42188 12.7812 6.34375
Q5.51562 14.1094 5.51562 27.2969
Q5.51562 40.6719 12.8594 48.3281
Q20.2188 56 33.0156 56
Q37.1562 56 41.1094 55.1406
Q45.0625 54.2969 48.7812 52.5938" id="BitstreamVeraSans-Roman-63"/>
      <path d="
M18.1094 8.20312
L18.1094 -20.7969
L9.07812 -20.7969
L9.07812 54.6875
L18.1094 54.6875
L18.1094 46.3906
Q20.9531 51.2656 25.2656 53.625
Q29.5938 56 35.5938 56
Q45.5625 56 51.7812 48.0938
Q58.0156 40.1875 58.0156 27.2969
Q58.0156 14.4062 51.7812 6.48438
Q45.5625 -1.42188 35.5938 -1.42188
Q29.5938 -1.42188 25.2656 0.953125
Q20.9531 3.32812 18.1094 8.20312
M48.6875 27.2969
Q48.6875 37.2031 44.6094 42.8438
Q40.5312 48.4844 33.4062 48.4844
Q26.2656 48.4844 22.1875 42.8438
Q18.1094 37.2031 18.1094 27.2969
Q18.1094 17.3906 22.1875 11.75
Q26.2656 6.10938 33.4062 6.10938
Q40.5312 6.10938 44.6094 11.75
Q48.6875 17.3906 48.6875 27.2969" id="BitstreamVeraSans-Roman-70"/>
      <path d="
M44.2812 53.0781
L44.2812 44.5781
Q40.4844 46.5312 36.375 47.5
Q32.2812 48.4844 27.875 48.4844
Q21.1875 48.4844 17.8438 46.4375
Q14.5 44.3906 14.5 40.2812
Q14.5 37.1562 16.8906 35.375
Q19.2812 33.5938 26.5156 31.9844
L29.5938 31.2969
Q39.1562 29.25 43.1875 25.5156
Q47.2188 21.7812 47.2188 15.0938
Q47.2188 7.46875 41.1875 3.01562
Q35.1562 -1.42188 24.6094 -1.42188
Q20.2188 -1.42188 15.4531 -0.5625
Q10.6875 0.296875 5.42188 2
L5.42188 11.2812
Q10.4062 8.6875 15.2344 7.39062
Q20.0625 6.10938 24.8125 6.10938
Q31.1562 6.10938 34.5625 8.28125
Q37.9844 10.4531 37.9844 14.4062
Q37.9844 18.0625 35.5156 20.0156
Q33.0625 21.9688 24.7031 23.7812
L21.5781 24.5156
Q13.2344 26.2656 9.51562 29.9062
Q5.8125 33.5469 5.8125 39.8906
Q5.8125 47.6094 11.2812 51.7969
Q16.75 56 26.8125 56
Q31.7812 56 36.1719 55.2656
Q40.5781 54.5469 44.2812 53.0781" id="BitstreamVeraSans-Roman-73"/>
      <path d="
M30.6094 48.3906
Q23.3906 48.3906 19.1875 42.75
Q14.9844 37.1094 14.9844 27.2969
Q14.9844 17.4844 19.1562 11.8438
Q23.3438 6.20312 30.6094 6.20312
Q37.7969 6.20312 41.9844 11.8594
Q46.1875 17.5312 46.1875 27.2969
Q46.1875 37.0156 41.9844 42.7031
Q37.7969 48.3906 30.6094 48.3906
M30.6094 56
Q42.3281 56 49.0156 48.375
Q55.7188 40.7656 55.7188 27.2969
Q55.7188 13.875 49.0156 6.21875
Q42.3281 -1.42188 30.6094 -1.42188
Q18.8438 -1.42188 12.1719 6.21875
Q5.51562 13.875 5.51562 27.2969
Q5.51562 40.7656 12.1719 48.375
Q18.8438 56 30.6094 56" id="BitstreamVeraSans-Roman-6f"/>
     </defs>
     <g transform="translate(270.81875 285.4765625)scale(0.1 -0.1)">
      <use xlink:href="#BitstreamVeraSans-Roman-45"/>
      <use x="63.18359375" xlink:href="#BitstreamVeraSans-Roman-70"/>
      <use x="126.66015625" xlink:href="#BitstreamVeraSans-Roman-6f"/>
      <use x="187.841796875" xlink:href="#BitstreamVeraSans-Roman-63"/>
      <use x="242.822265625" xlink:href="#BitstreamVeraSans-Roman-68"/>
      <use x="306.201171875" xlink:href="#BitstreamVeraSans-Roman-73"/>
     </g>
    </g>
   </g>
   <g id="matplotlib.axis_2">
    <g id="ytick_1">
     <g id="line2d_13">
      <defs>
       <path d="
M0 0
L4 0" id="md7965d1ba0" style="stroke:#000000;stroke-width:0.5;"/>
      </defs>
      <g>
       <use style="stroke:#000000;stroke-width:0.5;" x="57.6" xlink:href="#md7965d1ba0" y="259.2"/>
      </g>
     </g>
     <g id="line2d_14">
      <defs>
       <path d="
M0 0
L-4 0" id="md9a1c1a7cd" style="stroke:#000000;stroke-width:0.5;"/>
      </defs>
      <g>
       <use style="stroke:#000000;stroke-width:0.5;" x="518.4" xlink:href="#md9a1c1a7cd" y="259.2"/>
      </g>
     </g>
     <g id="text_7">
      <!-- 5 -->
      <g transform="translate(48.8828125 261.959375)scale(0.1 -0.1)">
       <use xlink:href="#BitstreamVeraSans-Roman-35"/>
      </g>
     </g>
    </g>
    <g id="ytick_2">
     <g id="line2d_15">
      <g>
       <use style="stroke:#000000;stroke-width:0.5;" x="57.6" xlink:href="#md7965d1ba0" y="213.12"/>
      </g>
     </g>
     <g id="line2d_16">
      <g>
       <use style="stroke:#000000;stroke-width:0.5;" x="518.4" xlink:href="#md9a1c1a7cd" y="213.12"/>
      </g>
     </g>
     <g id="text_8">
      <!-- 10 -->
      <g transform="translate(42.6375 215.879375)scale(0.1 -0.1)">
       <use xlink:href="#BitstreamVeraSans-Roman-31"/>
       <use x="63.623046875" xlink:href="#BitstreamVeraSans-Roman-30"/>
      </g>
     </g>
    </g>
    <g id="ytick_3">
     <g id="line2d_17">
      <g>
       <use style="stroke:#000000;stroke-width:0.5;" x="57.6" xlink:href="#md7965d1ba0" y="167.04"/>
      </g>
     </g>
     <g id="line2d_18">
      <g>
       <use style="stroke:#000000;stroke-width:0.5;" x="518.4" xlink:href="#md9a1c1a7cd" y="167.04"/>
      </g>
     </g>
     <g id="text_9">
      <!-- 15 -->
      <g transform="translate(42.846875 169.799375)scale(0.1 -0.1)">
       <use xlink:href="#BitstreamVeraSans-Roman-31"/>
       <use x="63.623046875" xlink:href="#BitstreamVeraSans-Roman-35"/>
      </g>
     </g>
    </g>
    <g id="ytick_4">
     <g id="line2d_19">
      <g>
       <use style="stroke:#000000;stroke-width:0.5;" x="57.6" xlink:href="#md7965d1ba0" y="120.96"/>
      </g>
     </g>
     <g id="line2d_20">
      <g>
       <use style="stroke:#000000;stroke-width:0.5;" x="518.4" xlink:href="#md9a1c1a7cd" y="120.96"/>
      </g>
     </g>
     <g id="text_10">
      <!-- 20 -->
      <g transform="translate(42.271875 123.719375)scale(0.1 -0.1)">
       <use xlink:href="#BitstreamVeraSans-Roman-32"/>
       <use x="63.623046875" xlink:href="#BitstreamVeraSans-Roman-30"/>
      </g>
     </g>
    </g>
    <g id="ytick_5">
     <g id="line2d_21">
      <g>
       <use style="stroke:#000000;stroke-width:0.5;" x="57.6" xlink:href="#md7965d1ba0" y="74.88"/>
      </g>
     </g>
     <g id="line2d_22">
      <g>
       <use style="stroke:#000000;stroke-width:0.5;" x="518.4" xlink:href="#md9a1c1a7cd" y="74.88"/>
      </g>
     </g>
     <g id="text_11">
      <!-- 25 -->
      <g transform="translate(42.48125 77.639375)scale(0.1 -0.1)">
       <use xlink:href="#BitstreamVeraSans-Roman-32"/>
       <use x="63.623046875" xlink:href="#BitstreamVeraSans-Roman-35"/>
      </g>
     </g>
    </g>
    <g id="ytick_6">
     <g id="line2d_23">
      <g>
       <use style="stroke:#000000;stroke-width:0.5;" x="57.6" xlink:href="#md7965d1ba0" y="28.8"/>
      </g>
     </g>
     <g id="line2d_24">
      <g>
       <use style="stroke:#000000;stroke-width:0.5;" x="518.4" xlink:href="#md9a1c1a7cd" y="28.8"/>
      </g>
     </g>
     <g id="text_12">
      <!-- 30 -->
      <defs>
       <path d="
M40.5781 39.3125
Q47.6562 37.7969 51.625 33
Q55.6094 28.2188 55.6094 21.1875
Q55.6094 10.4062 48.1875 4.48438
Q40.7656 -1.42188 27.0938 -1.42188
Q22.5156 -1.42188 17.6562 -0.515625
Q12.7969 0.390625 7.625 2.20312
L7.625 11.7188
Q11.7188 9.32812 16.5938 8.10938
Q21.4844 6.89062 26.8125 6.89062
Q36.0781 6.89062 40.9375 10.5469
Q45.7969 14.2031 45.7969 21.1875
Q45.7969 27.6406 41.2812 31.2656
Q36.7656 34.9062 28.7188 34.9062
L20.2188 34.9062
L20.2188 43.0156
L29.1094 43.0156
Q36.375 43.0156 40.2344 45.9219
Q44.0938 48.8281 44.0938 54.2969
Q44.0938 59.9062 40.1094 62.9062
Q36.1406 65.9219 28.7188 65.9219
Q24.6562 65.9219 20.0156 65.0312
Q15.375 64.1562 9.8125 62.3125
L9.8125 71.0938
Q15.4375 72.6562 20.3438 73.4375
Q25.25 74.2188 29.5938 74.2188
Q40.8281 74.2188 47.3594 69.1094
Q53.9062 64.0156 53.9062 55.3281
Q53.9062 49.2656 50.4375 45.0938
Q46.9688 40.9219 40.5781 39.3125" id="BitstreamVeraSans-Roman-33"/>
      </defs>
      <g transform="translate(42.3015625 31.559375)scale(0.1 -0.1)">
       <use xlink:href="#BitstreamVeraSans-Roman-33"/>
       <use x="63.623046875" xlink:href="#BitstreamVeraSans-Roman-30"/>
      </g>
     </g>
    </g>
    <g id="text_13">
     <!-- Log perplexity -->
     <defs>
      <path d="
M18.3125 70.2188
L18.3125 54.6875
L36.8125 54.6875
L36.8125 47.7031
L18.3125 47.7031
L18.3125 18.0156
Q18.3125 11.3281 20.1406 9.42188
Q21.9688 7.51562 27.5938 7.51562
L36.8125 7.51562
L36.8125 0
L27.5938 0
Q17.1875 0 13.2344 3.875
Q9.28125 7.76562 9.28125 18.0156
L9.28125 47.7031
L2.6875 47.7031
L2.6875 54.6875
L9.28125 54.6875
L9.28125 70.2188
z
" id="BitstreamVeraSans-Roman-74"/>
      <path d="
M54.8906 54.6875
L35.1094 28.0781
L55.9062 0
L45.3125 0
L29.3906 21.4844
L13.4844 0
L2.875 0
L24.125 28.6094
L4.6875 54.6875
L15.2812 54.6875
L29.7812 35.2031
L44.2812 54.6875
z
" id="BitstreamVeraSans-Roman-78"/>
      <path d="
M9.42188 54.6875
L18.4062 54.6875
L18.4062 0
L9.42188 0
z

M9.42188 75.9844
L18.4062 75.9844
L18.4062 64.5938
L9.42188 64.5938
z
" id="BitstreamVeraSans-Roman-69"/>
      <path d="
M9.8125 72.9062
L19.6719 72.9062
L19.6719 8.29688
L55.1719 8.29688
L55.1719 0
L9.8125 0
z
" id="BitstreamVeraSans-Roman-4c"/>
      <path id="BitstreamVeraSans-Roman-20"/>
      <path d="
M9.42188 75.9844
L18.4062 75.9844
L18.4062 0
L9.42188 0
z
" id="BitstreamVeraSans-Roman-6c"/>
      <path d="
M32.1719 -5.07812
Q28.375 -14.8438 24.75 -17.8125
Q21.1406 -20.7969 15.0938 -20.7969
L7.90625 -20.7969
L7.90625 -13.2812
L13.1875 -13.2812
Q16.8906 -13.2812 18.9375 -11.5156
Q21 -9.76562 23.4844 -3.21875
L25.0938 0.875
L2.98438 54.6875
L12.5 54.6875
L29.5938 11.9219
L46.6875 54.6875
L56.2031 54.6875
z
" id="BitstreamVeraSans-Roman-79"/>
      <path d="
M41.1094 46.2969
Q39.5938 47.1719 37.8125 47.5781
Q36.0312 48 33.8906 48
Q26.2656 48 22.1875 43.0469
Q18.1094 38.0938 18.1094 28.8125
L18.1094 0
L9.07812 0
L9.07812 54.6875
L18.1094 54.6875
L18.1094 46.1875
Q20.9531 51.1719 25.4844 53.5781
Q30.0312 56 36.5312 56
Q37.4531 56 38.5781 55.875
Q39.7031 55.7656 41.0625 55.5156
z
" id="BitstreamVeraSans-Roman-72"/>
      <path d="
M45.4062 27.9844
Q45.4062 37.75 41.375 43.1094
Q37.3594 48.4844 30.0781 48.4844
Q22.8594 48.4844 18.8281 43.1094
Q14.7969 37.75 14.7969 27.9844
Q14.7969 18.2656 18.8281 12.8906
Q22.8594 7.51562 30.0781 7.51562
Q37.3594 7.51562 41.375 12.8906
Q45.4062 18.2656 45.4062 27.9844
M54.3906 6.78125
Q54.3906 -7.17188 48.1875 -13.9844
Q42 -20.7969 29.2031 -20.7969
Q24.4688 -20.7969 20.2656 -20.0938
Q16.0625 -19.3906 12.1094 -17.9219
L12.1094 -9.1875
Q16.0625 -11.3281 19.9219 -12.3438
Q23.7812 -13.375 27.7812 -13.375
Q36.625 -13.375 41.0156 -8.76562
Q45.4062 -4.15625 45.4062 5.17188
L45.4062 9.625
Q42.625 4.78125 38.2812 2.39062
Q33.9375 0 27.875 0
Q17.8281 0 11.6719 7.65625
Q5.51562 15.3281 5.51562 27.9844
Q5.51562 40.6719 11.6719 48.3281
Q17.8281 56 27.875 56
Q33.9375 56 38.2812 53.6094
Q42.625 51.2188 45.4062 46.3906
L45.4062 54.6875
L54.3906 54.6875
z
" id="BitstreamVeraSans-Roman-67"/>
      <path d="
M56.2031 29.5938
L56.2031 25.2031
L14.8906 25.2031
Q15.4844 15.9219 20.4844 11.0625
Q25.4844 6.20312 34.4219 6.20312
Q39.5938 6.20312 44.4531 7.46875
Q49.3125 8.73438 54.1094 11.2812
L54.1094 2.78125
Q49.2656 0.734375 44.1875 -0.34375
Q39.1094 -1.42188 33.8906 -1.42188
Q20.7969 -1.42188 13.1562 6.1875
Q5.51562 13.8125 5.51562 26.8125
Q5.51562 40.2344 12.7656 48.1094
Q20.0156 56 32.3281 56
Q43.3594 56 49.7812 48.8906
Q56.2031 41.7969 56.2031 29.5938
M47.2188 32.2344
Q47.125 39.5938 43.0938 43.9844
Q39.0625 48.3906 32.4219 48.3906
Q24.9062 48.3906 20.3906 44.1406
Q15.875 39.8906 15.1875 32.1719
z
" id="BitstreamVeraSans-Roman-65"/>
     </defs>
     <g transform="translate(35.1921875 179.4984375)rotate(-90.0)scale(0.1 -0.1)">
      <use xlink:href="#BitstreamVeraSans-Roman-4c"/>
      <use x="53.962890625" xlink:href="#BitstreamVeraSans-Roman-6f"/>
      <use x="115.14453125" xlink:href="#BitstreamVeraSans-Roman-67"/>
      <use x="178.62109375" xlink:href="#BitstreamVeraSans-Roman-20"/>
      <use x="210.408203125" xlink:href="#BitstreamVeraSans-Roman-70"/>
      <use x="273.884765625" xlink:href="#BitstreamVeraSans-Roman-65"/>
      <use x="335.408203125" xlink:href="#BitstreamVeraSans-Roman-72"/>
      <use x="376.521484375" xlink:href="#BitstreamVeraSans-Roman-70"/>
      <use x="439.998046875" xlink:href="#BitstreamVeraSans-Roman-6c"/>
      <use x="467.78125" xlink:href="#BitstreamVeraSans-Roman-65"/>
      <use x="527.5546875" xlink:href="#BitstreamVeraSans-Roman-78"/>
      <use x="586.734375" xlink:href="#BitstreamVeraSans-Roman-69"/>
      <use x="614.517578125" xlink:href="#BitstreamVeraSans-Roman-74"/>
      <use x="653.7265625" xlink:href="#BitstreamVeraSans-Roman-79"/>
     </g>
    </g>
   </g>
   <g id="text_14">
    <!-- Training error for Stochastic Gradient Descent of RSM -->
    <defs>
     <path d="
M-0.296875 72.9062
L61.375 72.9062
L61.375 64.5938
L35.5 64.5938
L35.5 0
L25.5938 0
L25.5938 64.5938
L-0.296875 64.5938
z
" id="BitstreamVeraSans-Roman-54"/>
     <path d="
M19.6719 64.7969
L19.6719 8.10938
L31.5938 8.10938
Q46.6875 8.10938 53.6875 14.9375
Q60.6875 21.7812 60.6875 36.5312
Q60.6875 51.1719 53.6875 57.9844
Q46.6875 64.7969 31.5938 64.7969
z

M9.8125 72.9062
L30.0781 72.9062
Q51.2656 72.9062 61.1719 64.0938
Q71.0938 55.2812 71.0938 36.5312
Q71.0938 17.6719 61.125 8.82812
Q51.1719 0 30.0781 0
L9.8125 0
z
" id="BitstreamVeraSans-Roman-44"/>
     <path d="
M59.5156 10.4062
L59.5156 29.9844
L43.4062 29.9844
L43.4062 38.0938
L69.2812 38.0938
L69.2812 6.78125
Q63.5781 2.73438 56.6875 0.65625
Q49.8125 -1.42188 42 -1.42188
Q24.9062 -1.42188 15.25 8.5625
Q5.60938 18.5625 5.60938 36.375
Q5.60938 54.25 15.25 64.2344
Q24.9062 74.2188 42 74.2188
Q49.125 74.2188 55.5469 72.4531
Q61.9688 70.7031 67.3906 67.2812
L67.3906 56.7812
Q61.9219 61.4219 55.7656 63.7656
Q49.6094 66.1094 42.8281 66.1094
Q29.4375 66.1094 22.7188 58.6406
Q16.0156 51.1719 16.0156 36.375
Q16.0156 21.625 22.7188 14.1562
Q29.4375 6.6875 42.8281 6.6875
Q48.0469 6.6875 52.1406 7.59375
Q56.25 8.5 59.5156 10.4062" id="BitstreamVeraSans-Roman-47"/>
     <path d="
M37.1094 75.9844
L37.1094 68.5
L28.5156 68.5
Q23.6875 68.5 21.7969 66.5469
Q19.9219 64.5938 19.9219 59.5156
L19.9219 54.6875
L34.7188 54.6875
L34.7188 47.7031
L19.9219 47.7031
L19.9219 0
L10.8906 0
L10.8906 47.7031
L2.29688 47.7031
L2.29688 54.6875
L10.8906 54.6875
L10.8906 58.5
Q10.8906 67.625 15.1406 71.7969
Q19.3906 75.9844 28.6094 75.9844
z
" id="BitstreamVeraSans-Roman-66"/>
     <path d="
M9.8125 72.9062
L24.5156 72.9062
L43.1094 23.2969
L61.8125 72.9062
L76.5156 72.9062
L76.5156 0
L66.8906 0
L66.8906 64.0156
L48.0938 14.0156
L38.1875 14.0156
L19.3906 64.0156
L19.3906 0
L9.8125 0
z
" id="BitstreamVeraSans-Roman-4d"/>
     <path d="
M34.2812 27.4844
Q23.3906 27.4844 19.1875 25
Q14.9844 22.5156 14.9844 16.5
Q14.9844 11.7188 18.1406 8.90625
Q21.2969 6.10938 26.7031 6.10938
Q34.1875 6.10938 38.7031 11.4062
Q43.2188 16.7031 43.2188 25.4844
L43.2188 27.4844
z

M52.2031 31.2031
L52.2031 0
L43.2188 0
L43.2188 8.29688
Q40.1406 3.32812 35.5469 0.953125
Q30.9531 -1.42188 24.3125 -1.42188
Q15.9219 -1.42188 10.9531 3.29688
Q6 8.01562 6 15.9219
Q6 25.1406 12.1719 29.8281
Q18.3594 34.5156 30.6094 34.5156
L43.2188 34.5156
L43.2188 35.4062
Q43.2188 41.6094 39.1406 45
Q35.0625 48.3906 27.6875 48.3906
Q23 48.3906 18.5469 47.2656
Q14.1094 46.1406 10.0156 43.8906
L10.0156 52.2031
Q14.9375 54.1094 19.5781 55.0469
Q24.2188 56 28.6094 56
Q40.4844 56 46.3438 49.8438
Q52.2031 43.7031 52.2031 31.2031" id="BitstreamVeraSans-Roman-61"/>
     <path d="
M53.5156 70.5156
L53.5156 60.8906
Q47.9062 63.5781 42.9219 64.8906
Q37.9375 66.2188 33.2969 66.2188
Q25.25 66.2188 20.875 63.0938
Q16.5 59.9688 16.5 54.2031
Q16.5 49.3594 19.4062 46.8906
Q22.3125 44.4375 30.4219 42.9219
L36.375 41.7031
Q47.4062 39.5938 52.6562 34.2969
Q57.9062 29 57.9062 20.125
Q57.9062 9.51562 50.7969 4.04688
Q43.7031 -1.42188 29.9844 -1.42188
Q24.8125 -1.42188 18.9688 -0.25
Q13.1406 0.921875 6.89062 3.21875
L6.89062 13.375
Q12.8906 10.0156 18.6562 8.29688
Q24.4219 6.59375 29.9844 6.59375
Q38.4219 6.59375 43.0156 9.90625
Q47.6094 13.2344 47.6094 19.3906
Q47.6094 24.75 44.3125 27.7812
Q41.0156 30.8125 33.5 32.3281
L27.4844 33.5
Q16.4531 35.6875 11.5156 40.375
Q6.59375 45.0625 6.59375 53.4219
Q6.59375 63.0938 13.4062 68.6562
Q20.2188 74.2188 32.1719 74.2188
Q37.3125 74.2188 42.625 73.2812
Q47.9531 72.3594 53.5156 70.5156" id="BitstreamVeraSans-Roman-53"/>
     <path d="
M44.3906 34.1875
Q47.5625 33.1094 50.5625 29.5938
Q53.5625 26.0781 56.5938 19.9219
L66.6094 0
L56 0
L46.6875 18.7031
Q43.0625 26.0312 39.6719 28.4219
Q36.2812 30.8125 30.4219 30.8125
L19.6719 30.8125
L19.6719 0
L9.8125 0
L9.8125 72.9062
L32.0781 72.9062
Q44.5781 72.9062 50.7344 67.6719
Q56.8906 62.4531 56.8906 51.9062
Q56.8906 45.0156 53.6875 40.4688
Q50.4844 35.9375 44.3906 34.1875
M19.6719 64.7969
L19.6719 38.9219
L32.0781 38.9219
Q39.2031 38.9219 42.8438 42.2188
Q46.4844 45.5156 46.4844 51.9062
Q46.4844 58.2969 42.8438 61.5469
Q39.2031 64.7969 32.0781 64.7969
z
" id="BitstreamVeraSans-Roman-52"/>
     <path d="
M45.4062 46.3906
L45.4062 75.9844
L54.3906 75.9844
L54.3906 0
L45.4062 0
L45.4062 8.20312
Q42.5781 3.32812 38.25 0.953125
Q33.9375 -1.42188 27.875 -1.42188
Q17.9688 -1.42188 11.7344 6.48438
Q5.51562 14.4062 5.51562 27.2969
Q5.51562 40.1875 11.7344 48.0938
Q17.9688 56 27.875 56
Q33.9375 56 38.25 53.625
Q42.5781 51.2656 45.4062 46.3906
M14.7969 27.2969
Q14.7969 17.3906 18.875 11.75
Q22.9531 6.10938 30.0781 6.10938
Q37.2031 6.10938 41.2969 11.75
Q45.4062 17.3906 45.4062 27.2969
Q45.4062 37.2031 41.2969 42.8438
Q37.2031 48.4844 30.0781 48.4844
Q22.9531 48.4844 18.875 42.8438
Q14.7969 37.2031 14.7969 27.2969" id="BitstreamVeraSans-Roman-64"/>
     <path d="
M54.8906 33.0156
L54.8906 0
L45.9062 0
L45.9062 32.7188
Q45.9062 40.4844 42.875 44.3281
Q39.8438 48.1875 33.7969 48.1875
Q26.5156 48.1875 22.3125 43.5469
Q18.1094 38.9219 18.1094 30.9062
L18.1094 0
L9.07812 0
L9.07812 54.6875
L18.1094 54.6875
L18.1094 46.1875
Q21.3438 51.125 25.7031 53.5625
Q30.0781 56 35.7969 56
Q45.2188 56 50.0469 50.1719
Q54.8906 44.3438 54.8906 33.0156" id="BitstreamVeraSans-Roman-6e"/>
    </defs>
    <g transform="translate(128.085 23.8)scale(0.12 -0.12)">
     <use xlink:href="#BitstreamVeraSans-Roman-54"/>
     <use x="46.333984375" xlink:href="#BitstreamVeraSans-Roman-72"/>
     <use x="87.447265625" xlink:href="#BitstreamVeraSans-Roman-61"/>
     <use x="148.7265625" xlink:href="#BitstreamVeraSans-Roman-69"/>
     <use x="176.509765625" xlink:href="#BitstreamVeraSans-Roman-6e"/>
     <use x="239.888671875" xlink:href="#BitstreamVeraSans-Roman-69"/>
     <use x="267.671875" xlink:href="#BitstreamVeraSans-Roman-6e"/>
     <use x="331.05078125" xlink:href="#BitstreamVeraSans-Roman-67"/>
     <use x="394.52734375" xlink:href="#BitstreamVeraSans-Roman-20"/>
     <use x="426.314453125" xlink:href="#BitstreamVeraSans-Roman-65"/>
     <use x="487.837890625" xlink:href="#BitstreamVeraSans-Roman-72"/>
     <use x="527.201171875" xlink:href="#BitstreamVeraSans-Roman-72"/>
     <use x="566.064453125" xlink:href="#BitstreamVeraSans-Roman-6f"/>
     <use x="627.24609375" xlink:href="#BitstreamVeraSans-Roman-72"/>
     <use x="668.359375" xlink:href="#BitstreamVeraSans-Roman-20"/>
     <use x="700.146484375" xlink:href="#BitstreamVeraSans-Roman-66"/>
     <use x="735.3515625" xlink:href="#BitstreamVeraSans-Roman-6f"/>
     <use x="796.533203125" xlink:href="#BitstreamVeraSans-Roman-72"/>
     <use x="837.646484375" xlink:href="#BitstreamVeraSans-Roman-20"/>
     <use x="869.43359375" xlink:href="#BitstreamVeraSans-Roman-53"/>
     <use x="932.91015625" xlink:href="#BitstreamVeraSans-Roman-74"/>
     <use x="972.119140625" xlink:href="#BitstreamVeraSans-Roman-6f"/>
     <use x="1033.30078125" xlink:href="#BitstreamVeraSans-Roman-63"/>
     <use x="1088.28125" xlink:href="#BitstreamVeraSans-Roman-68"/>
     <use x="1151.66015625" xlink:href="#BitstreamVeraSans-Roman-61"/>
     <use x="1212.939453125" xlink:href="#BitstreamVeraSans-Roman-73"/>
     <use x="1265.0390625" xlink:href="#BitstreamVeraSans-Roman-74"/>
     <use x="1304.248046875" xlink:href="#BitstreamVeraSans-Roman-69"/>
     <use x="1332.03125" xlink:href="#BitstreamVeraSans-Roman-63"/>
     <use x="1387.01171875" xlink:href="#BitstreamVeraSans-Roman-20"/>
     <use x="1418.798828125" xlink:href="#BitstreamVeraSans-Roman-47"/>
     <use x="1496.2890625" xlink:href="#BitstreamVeraSans-Roman-72"/>
     <use x="1537.40234375" xlink:href="#BitstreamVeraSans-Roman-61"/>
     <use x="1598.681640625" xlink:href="#BitstreamVeraSans-Roman-64"/>
     <use x="1662.158203125" xlink:href="#BitstreamVeraSans-Roman-69"/>
     <use x="1689.94140625" xlink:href="#BitstreamVeraSans-Roman-65"/>
     <use x="1751.46484375" xlink:href="#BitstreamVeraSans-Roman-6e"/>
     <use x="1814.84375" xlink:href="#BitstreamVeraSans-Roman-74"/>
     <use x="1854.052734375" xlink:href="#BitstreamVeraSans-Roman-20"/>
     <use x="1885.83984375" xlink:href="#BitstreamVeraSans-Roman-44"/>
     <use x="1962.841796875" xlink:href="#BitstreamVeraSans-Roman-65"/>
     <use x="2024.365234375" xlink:href="#BitstreamVeraSans-Roman-73"/>
     <use x="2076.46484375" xlink:href="#BitstreamVeraSans-Roman-63"/>
     <use x="2131.4453125" xlink:href="#BitstreamVeraSans-Roman-65"/>
     <use x="2192.96875" xlink:href="#BitstreamVeraSans-Roman-6e"/>
     <use x="2256.34765625" xlink:href="#BitstreamVeraSans-Roman-74"/>
     <use x="2295.556640625" xlink:href="#BitstreamVeraSans-Roman-20"/>
     <use x="2327.34375" xlink:href="#BitstreamVeraSans-Roman-6f"/>
     <use x="2388.525390625" xlink:href="#BitstreamVeraSans-Roman-66"/>
     <use x="2423.73046875" xlink:href="#BitstreamVeraSans-Roman-20"/>
     <use x="2455.517578125" xlink:href="#BitstreamVeraSans-Roman-52"/>
     <use x="2525.0" xlink:href="#BitstreamVeraSans-Roman-53"/>
     <use x="2588.4765625" xlink:href="#BitstreamVeraSans-Roman-4d"/>
    </g>
   </g>
   <g id="legend_1">
    <g id="patch_7">
     <path d="
M273.812 73.6275
L512.4 73.6275
L512.4 34.8
L273.812 34.8
z
" style="fill:#ffffff;stroke:#000000;stroke-linejoin:miter;"/>
    </g>
    <g id="line2d_25">
     <path d="
M282.212 44.5181
L299.012 44.5181" style="fill:none;stroke:#0000ff;stroke-linecap:square;"/>
    </g>
    <g id="line2d_26"/>
    <g id="text_15">
     <!-- SGD -->
     <g transform="translate(312.211875 48.718125)scale(0.12 -0.12)">
      <use xlink:href="#BitstreamVeraSans-Roman-53"/>
      <use x="63.4765625" xlink:href="#BitstreamVeraSans-Roman-47"/>
      <use x="140.966796875" xlink:href="#BitstreamVeraSans-Roman-44"/>
     </g>
    </g>
    <g id="line2d_27">
     <path d="
M282.212 62.1319
L299.012 62.1319" style="fill:none;stroke:#008000;stroke-linecap:square;"/>
    </g>
    <g id="line2d_28"/>
    <g id="text_16">
     <!-- SGD w/. Predictive Variance Red. -->
     <defs>
      <path d="
M25.3906 72.9062
L33.6875 72.9062
L8.29688 -9.28125
L0 -9.28125
z
" id="BitstreamVeraSans-Roman-2f"/>
      <path d="
M10.6875 12.4062
L21 12.4062
L21 0
L10.6875 0
z
" id="BitstreamVeraSans-Roman-2e"/>
      <path d="
M28.6094 0
L0.78125 72.9062
L11.0781 72.9062
L34.1875 11.5312
L57.3281 72.9062
L67.5781 72.9062
L39.7969 0
z
" id="BitstreamVeraSans-Roman-56"/>
      <path d="
M19.6719 64.7969
L19.6719 37.4062
L32.0781 37.4062
Q38.9688 37.4062 42.7188 40.9688
Q46.4844 44.5312 46.4844 51.125
Q46.4844 57.6719 42.7188 61.2344
Q38.9688 64.7969 32.0781 64.7969
z

M9.8125 72.9062
L32.0781 72.9062
Q44.3438 72.9062 50.6094 67.3594
Q56.8906 61.8125 56.8906 51.125
Q56.8906 40.3281 50.6094 34.8125
Q44.3438 29.2969 32.0781 29.2969
L19.6719 29.2969
L19.6719 0
L9.8125 0
z
" id="BitstreamVeraSans-Roman-50"/>
      <path d="
M4.20312 54.6875
L13.1875 54.6875
L24.4219 12.0156
L35.5938 54.6875
L46.1875 54.6875
L57.4219 12.0156
L68.6094 54.6875
L77.5938 54.6875
L63.2812 0
L52.6875 0
L40.9219 44.8281
L29.1094 0
L18.5 0
z
" id="BitstreamVeraSans-Roman-77"/>
      <path d="
M2.98438 54.6875
L12.5 54.6875
L29.5938 8.79688
L46.6875 54.6875
L56.2031 54.6875
L35.6875 0
L23.4844 0
z
" id="BitstreamVeraSans-Roman-76"/>
     </defs>
     <g transform="translate(312.211875 66.331875)scale(0.12 -0.12)">
      <use xlink:href="#BitstreamVeraSans-Roman-53"/>
      <use x="63.4765625" xlink:href="#BitstreamVeraSans-Roman-47"/>
      <use x="140.966796875" xlink:href="#BitstreamVeraSans-Roman-44"/>
      <use x="217.96875" xlink:href="#BitstreamVeraSans-Roman-20"/>
      <use x="249.755859375" xlink:href="#BitstreamVeraSans-Roman-77"/>
      <use x="331.54296875" xlink:href="#BitstreamVeraSans-Roman-2f"/>
      <use x="365.234375" xlink:href="#BitstreamVeraSans-Roman-2e"/>
      <use x="397.021484375" xlink:href="#BitstreamVeraSans-Roman-20"/>
      <use x="428.80859375" xlink:href="#BitstreamVeraSans-Roman-50"/>
      <use x="487.361328125" xlink:href="#BitstreamVeraSans-Roman-72"/>
      <use x="526.224609375" xlink:href="#BitstreamVeraSans-Roman-65"/>
      <use x="587.748046875" xlink:href="#BitstreamVeraSans-Roman-64"/>
      <use x="651.224609375" xlink:href="#BitstreamVeraSans-Roman-69"/>
      <use x="679.0078125" xlink:href="#BitstreamVeraSans-Roman-63"/>
      <use x="733.98828125" xlink:href="#BitstreamVeraSans-Roman-74"/>
      <use x="773.197265625" xlink:href="#BitstreamVeraSans-Roman-69"/>
      <use x="800.98046875" xlink:href="#BitstreamVeraSans-Roman-76"/>
      <use x="860.16015625" xlink:href="#BitstreamVeraSans-Roman-65"/>
      <use x="921.68359375" xlink:href="#BitstreamVeraSans-Roman-20"/>
      <use x="953.470703125" xlink:href="#BitstreamVeraSans-Roman-56"/>
      <use x="1014.12890625" xlink:href="#BitstreamVeraSans-Roman-61"/>
      <use x="1075.408203125" xlink:href="#BitstreamVeraSans-Roman-72"/>
      <use x="1116.521484375" xlink:href="#BitstreamVeraSans-Roman-69"/>
      <use x="1144.3046875" xlink:href="#BitstreamVeraSans-Roman-61"/>
      <use x="1205.583984375" xlink:href="#BitstreamVeraSans-Roman-6e"/>
      <use x="1268.962890625" xlink:href="#BitstreamVeraSans-Roman-63"/>
      <use x="1323.943359375" xlink:href="#BitstreamVeraSans-Roman-65"/>
      <use x="1385.466796875" xlink:href="#BitstreamVeraSans-Roman-20"/>
      <use x="1417.25390625" xlink:href="#BitstreamVeraSans-Roman-52"/>
      <use x="1482.236328125" xlink:href="#BitstreamVeraSans-Roman-65"/>
      <use x="1543.759765625" xlink:href="#BitstreamVeraSans-Roman-64"/>
      <use x="1607.236328125" xlink:href="#BitstreamVeraSans-Roman-2e"/>
     </g>
    </g>
   </g>
  </g>
 </g>
 <defs>
  <clipPath id="p050c38148a">
   <rect height="230.4" width="460.8" x="57.6" y="28.8"/>
  </clipPath>
 </defs>
</svg>
