<?xml version="1.0" encoding="utf-8" standalone="no"?>
<!DOCTYPE svg PUBLIC "-//W3C//DTD SVG 1.1//EN"
  "http://www.w3.org/Graphics/SVG/1.1/DTD/svg11.dtd">
<!-- Created with matplotlib (http://matplotlib.org/) -->
<svg height="288pt" version="1.1" viewBox="0 0 576 288" width="576pt" xmlns="http://www.w3.org/2000/svg" xmlns:xlink="http://www.w3.org/1999/xlink">
 <defs>
  <style type="text/css">
*{stroke-linecap:butt;stroke-linejoin:round;}
  </style>
 </defs>
 <g id="figure_1">
  <g id="patch_1">
   <path d="
M0 288
L576 288
L576 0
L0 0
z
" style="fill:#ffffff;"/>
  </g>
  <g id="axes_1">
   <g id="patch_2">
    <path d="
M57.6 259.2
L518.4 259.2
L518.4 28.8
L57.6 28.8
z
" style="fill:#ffffff;"/>
   </g>
   <g id="line2d_1">
    <path clip-path="url(#p050c38148a)" d="
M57.6 226.699
L59.904 225.623
L62.208 228.443
L64.512 227.854
L66.816 229.198
L69.12 227.289
L71.424 228.52
L73.728 230.026
L76.032 223.439
L78.336 229.944
L80.64 230.711
L82.944 230.234
L85.248 230.731
L87.552 231.738
L89.856 231.972
L92.16 232.463
L94.464 233.113
L96.768 233.447
L99.072 234.815
L101.376 232.79
L103.68 236.724
L105.984 236.575
L108.288 234.87
L110.592 234.053
L112.896 236.232
L115.2 235.306
L117.504 235.684
L119.808 236.377
L122.112 237.292
L124.416 235.774
L126.72 236.072
L129.024 235.844
L131.328 241.401
L133.632 238.956
L135.936 237.896
L138.24 242.025
L140.544 236.173
L142.848 236.457
L145.152 240.054
L147.456 236.565
L149.76 236.309
L152.064 241.213
L154.368 237.87
L156.672 236.322
L158.976 236.473
L161.28 240.79
L163.584 237.095
L165.888 237.26
L168.192 242.143
L170.496 240.975
L172.8 238.152
L175.104 241.47
L177.408 242.111
L179.712 239.464
L182.016 237.039
L184.32 237.886
L186.624 237.421
L188.928 238.051
L191.232 240.951
L193.536 237.625
L195.84 238.542
L198.144 241.135
L200.448 239.027
L202.752 238.392
L205.056 239.45
L207.36 238.158
L209.664 238.408
L211.968 244.091
L214.272 242.5
L216.576 239.927
L218.88 241.434
L221.184 238.256
L225.792 238.895
L228.096 237.935
L230.4 238.511
L232.704 239.954
L235.008 239.746
L237.312 238.22
L239.616 239.229
L241.92 238.249
L244.224 239.802
L246.528 238.384
L248.832 241.51
L251.136 241.913
L253.44 239.42
L255.744 243.998
L258.048 238.663
L260.352 244.084
L262.656 238.459
L264.96 239.013
L267.264 237.842
L269.568 240.784
L271.872 239.492
L274.176 245.12
L276.48 241.68
L278.784 243.771
L281.088 238.421
L285.696 239.606
L288 238.818
L290.304 241.666
L292.608 237.983
L294.912 239.146
L297.216 239.674
L299.52 239.274
L301.824 241.032
L304.128 243.925
L306.432 243.432
L308.736 244.987
L311.04 238.396
L313.344 241.987
L315.648 238.182
L317.952 237.269
L320.256 243.298
L322.56 244.926
L324.864 238.356
L327.168 239.098
L329.472 238.901
L331.776 239.227
L334.08 238.828
L336.384 238.873
L338.688 239.093
L340.992 239.73
L343.296 239.457
L345.6 244.548
L347.904 241.602
L350.208 240.616
L352.512 240.222
L354.816 239.537
L357.12 239.611
L359.424 241.099
L361.728 239.292
L364.032 243.354
L366.336 240.152
L370.944 239.121
L373.248 239.124
L375.552 244.335
L377.856 240.305
L380.16 238.911
L382.464 237.699
L384.768 240.564
L387.072 239.332
L389.376 239.518
L391.68 242.933
L393.984 239.008
L396.288 240.19
L398.592 241.655
L400.896 240.386
L403.2 238.966
L405.504 244.307
L407.808 240.197
L410.112 239.402
L412.416 239.349
L414.72 239.949
L417.024 238.094
L419.328 243.569
L421.632 239.664
L423.936 240.168
L428.544 239.222
L430.848 240.942
L433.152 240.149
L435.456 240.727
L437.76 239.199
L440.064 239.308
L442.368 241.308
L444.672 243.514
L446.976 244.998
L449.28 239.614
L451.584 239.411
L453.888 243.294
L456.192 240.207
L458.496 244.274
L460.8 243.713
L463.104 240.739
L465.408 241.153
L467.712 239.212
L470.016 244.003
L472.32 245.074
L474.624 241.644
L476.928 240.51
L479.232 242.715
L481.536 244.018
L483.84 240.316
L486.144 240.257
L488.448 239.339
L490.752 244.025
L493.056 240.567
L495.36 241.65
L497.664 240.387
L502.272 240.128
L506.88 240.46
L509.184 246.146
L509.184 246.146" style="fill:none;stroke:#0000ff;stroke-linecap:square;"/>
   </g>
   <g id="line2d_2">
    <path clip-path="url(#p050c38148a)" d="
M57.6 102.552
L59.904 167.295
L62.208 190.902
L64.512 211.882
L66.816 183.618
L69.12 210.498
L71.424 210.939
L73.728 211.495
L76.032 106.682
L78.336 59.1859
L80.64 165.346
L82.944 206.75
L85.248 96.4056
L87.552 125.089
L89.856 143.899
L92.16 86.4815
L94.464 170.285
L96.768 195.474
L99.072 146.259
L101.376 184.172
L103.68 75.5024
L105.984 207.25
L108.288 124.3
L110.592 155.82
L112.896 176.005
L115.2 195.056
L117.504 210.581
L119.808 130.37
L122.112 168.964
L124.416 190.922
L126.72 196.531
L129.024 212.525
L131.328 219.501
L133.632 206.899
L135.936 211.851
L138.24 221.655
L140.544 167.733
L142.848 212.166
L145.152 185.447
L147.456 213.185
L149.76 221.4
L152.064 220.555
L154.368 193.01
L156.672 221.075
L158.976 221.518
L161.28 223.762
L163.584 221.011
L165.888 192.176
L168.192 174.592
L170.496 204.532
L172.8 211.143
L175.104 188.786
L177.408 220.903
L179.712 223.136
L182.016 221.841
L184.32 227.401
L186.624 206.69
L188.928 226.347
L191.232 225.254
L193.536 227.434
L195.84 227.917
L198.144 225.505
L200.448 230.041
L202.752 227.205
L205.056 227.658
L207.36 230.647
L209.664 228.966
L214.272 229.675
L216.576 229.367
L218.88 186.605
L221.184 226.386
L223.488 225.13
L225.792 220.833
L228.096 224.21
L230.4 214.209
L232.704 222.2
L235.008 218.648
L237.312 222.939
L239.616 229.523
L241.92 230.029
L244.224 233.986
L246.528 231.764
L248.832 234.127
L251.136 232.129
L253.44 232.41
L255.744 231.31
L258.048 232.886
L260.352 230.445
L262.656 235.809
L264.96 230.188
L267.264 231.142
L269.568 228.825
L271.872 229.312
L276.48 229.626
L278.784 230.79
L281.088 230.456
L283.392 236.289
L285.696 232.563
L288 232.895
L290.304 231.437
L292.608 234.287
L294.912 231.983
L297.216 231.924
L299.52 232.343
L301.824 231.825
L304.128 232.637
L306.432 235.135
L308.736 232.608
L311.04 229.708
L313.344 233.992
L315.648 218.48
L317.952 222.285
L320.256 208.28
L322.56 220.571
L324.864 199.366
L327.168 220.236
L329.472 205.574
L331.776 225.602
L334.08 205.367
L336.384 220.778
L338.688 214.279
L340.992 223.579
L343.296 224.641
L345.6 224.985
L347.904 227.158
L350.208 224.432
L352.512 227.981
L357.12 227.002
L359.424 225.753
L361.728 229.76
L364.032 224.907
L366.336 224.95
L368.64 224.366
L370.944 225.912
L373.248 224.832
L375.552 224.734
L377.856 227.272
L380.16 223.424
L382.464 224.232
L384.768 225.589
L387.072 222.551
L389.376 222.236
L391.68 224.316
L393.984 219.43
L396.288 221.567
L398.592 222.237
L400.896 222.416
L403.2 220.793
L405.504 222.191
L407.808 222.794
L410.112 221.926
L412.416 221.535
L414.72 220.789
L417.024 221.624
L419.328 220.889
L421.632 220.955
L423.936 214.928
L426.24 217.503
L428.544 219.131
L430.848 220.34
L433.152 220.627
L435.456 218.909
L437.76 218.723
L440.064 219.615
L442.368 217.064
L444.672 213.504
L446.976 221.18
L449.28 218.992
L451.584 217.125
L453.888 219.208
L456.192 214.897
L458.496 215.774
L460.8 212.42
L463.104 215.174
L465.408 213.994
L467.712 218.285
L470.016 214.996
L472.32 216.437
L474.624 214.824
L476.928 218.006
L479.232 210.042
L481.536 216.583
L483.84 218.253
L486.144 220.241
L488.448 216.487
L490.752 209.479
L493.056 218.792
L495.36 219.432
L497.664 219.178
L499.968 217.464
L502.272 218.701
L504.576 218.639
L506.88 218.159
L509.184 219.79
L509.184 219.79" style="fill:none;stroke:#008000;stroke-linecap:square;"/>
   </g>
   <g id="patch_3">
    <path d="
M57.6 259.2
L57.6 28.8" style="fill:none;stroke:#000000;stroke-linecap:square;stroke-linejoin:miter;"/>
   </g>
   <g id="patch_4">
    <path d="
M57.6 259.2
L518.4 259.2" style="fill:none;stroke:#000000;stroke-linecap:square;stroke-linejoin:miter;"/>
   </g>
   <g id="patch_5">
    <path d="
M518.4 259.2
L518.4 28.8" style="fill:none;stroke:#000000;stroke-linecap:square;stroke-linejoin:miter;"/>
   </g>
   <g id="patch_6">
    <path d="
M57.6 28.8
L518.4 28.8" style="fill:none;stroke:#000000;stroke-linecap:square;stroke-linejoin:miter;"/>
   </g>
   <g id="matplotlib.axis_1">
    <g id="xtick_1">
     <g id="line2d_3">
      <defs>
       <path d="
M0 0
L0 -4" id="mc7db9fdffb" style="stroke:#000000;stroke-width:0.5;"/>
      </defs>
      <g>
       <use style="stroke:#000000;stroke-width:0.5;" x="57.6" xlink:href="#mc7db9fdffb" y="259.2"/>
      </g>
     </g>
     <g id="line2d_4">
      <defs>
       <path d="
M0 0
L0 4" id="m5a7d422ac3" style="stroke:#000000;stroke-width:0.5;"/>
      </defs>
      <g>
       <use style="stroke:#000000;stroke-width:0.5;" x="57.6" xlink:href="#m5a7d422ac3" y="28.8"/>
      </g>
     </g>
     <g id="text_1">
      <!-- 0 -->
      <defs>
       <path d="
M31.7812 66.4062
Q24.1719 66.4062 20.3281 58.9062
Q16.5 51.4219 16.5 36.375
Q16.5 21.3906 20.3281 13.8906
Q24.1719 6.39062 31.7812 6.39062
Q39.4531 6.39062 43.2812 13.8906
Q47.125 21.3906 47.125 36.375
Q47.125 51.4219 43.2812 58.9062
Q39.4531 66.4062 31.7812 66.4062
M31.7812 74.2188
Q44.0469 74.2188 50.5156 64.5156
Q56.9844 54.8281 56.9844 36.375
Q56.9844 17.9688 50.5156 8.26562
Q44.0469 -1.42188 31.7812 -1.42188
Q19.5312 -1.42188 13.0625 8.26562
Q6.59375 17.9688 6.59375 36.375
Q6.59375 54.8281 13.0625 64.5156
Q19.5312 74.2188 31.7812 74.2188" id="BitstreamVeraSans-Roman-30"/>
      </defs>
      <g transform="translate(55.08046875 270.7984375)scale(0.1 -0.1)">
       <use xlink:href="#BitstreamVeraSans-Roman-30"/>
      </g>
     </g>
    </g>
    <g id="xtick_2">
     <g id="line2d_5">
      <g>
       <use style="stroke:#000000;stroke-width:0.5;" x="172.8" xlink:href="#mc7db9fdffb" y="259.2"/>
      </g>
     </g>
     <g id="line2d_6">
      <g>
       <use style="stroke:#000000;stroke-width:0.5;" x="172.8" xlink:href="#m5a7d422ac3" y="28.8"/>
      </g>
     </g>
     <g id="text_2">
      <!-- 50 -->
      <defs>
       <path d="
M10.7969 72.9062
L49.5156 72.9062
L49.5156 64.5938
L19.8281 64.5938
L19.8281 46.7344
Q21.9688 47.4688 24.1094 47.8281
Q26.2656 48.1875 28.4219 48.1875
Q40.625 48.1875 47.75 41.5
Q54.8906 34.8125 54.8906 23.3906
Q54.8906 11.625 47.5625 5.09375
Q40.2344 -1.42188 26.9062 -1.42188
Q22.3125 -1.42188 17.5469 -0.640625
Q12.7969 0.140625 7.71875 1.70312
L7.71875 11.625
Q12.1094 9.23438 16.7969 8.0625
Q21.4844 6.89062 26.7031 6.89062
Q35.1562 6.89062 40.0781 11.3281
Q45.0156 15.7656 45.0156 23.3906
Q45.0156 31 40.0781 35.4375
Q35.1562 39.8906 26.7031 39.8906
Q22.75 39.8906 18.8125 39.0156
Q14.8906 38.1406 10.7969 36.2812
z
" id="BitstreamVeraSans-Roman-35"/>
      </defs>
      <g transform="translate(167.15546875 270.7984375)scale(0.1 -0.1)">
       <use xlink:href="#BitstreamVeraSans-Roman-35"/>
       <use x="63.623046875" xlink:href="#BitstreamVeraSans-Roman-30"/>
      </g>
     </g>
    </g>
    <g id="xtick_3">
     <g id="line2d_7">
      <g>
       <use style="stroke:#000000;stroke-width:0.5;" x="288.0" xlink:href="#mc7db9fdffb" y="259.2"/>
      </g>
     </g>
     <g id="line2d_8">
      <g>
       <use style="stroke:#000000;stroke-width:0.5;" x="288.0" xlink:href="#m5a7d422ac3" y="28.8"/>
      </g>
     </g>
     <g id="text_3">
      <!-- 100 -->
      <defs>
       <path d="
M12.4062 8.29688
L28.5156 8.29688
L28.5156 63.9219
L10.9844 60.4062
L10.9844 69.3906
L28.4219 72.9062
L38.2812 72.9062
L38.2812 8.29688
L54.3906 8.29688
L54.3906 0
L12.4062 0
z
" id="BitstreamVeraSans-Roman-31"/>
      </defs>
      <g transform="translate(279.3375 270.7984375)scale(0.1 -0.1)">
       <use xlink:href="#BitstreamVeraSans-Roman-31"/>
       <use x="63.623046875" xlink:href="#BitstreamVeraSans-Roman-30"/>
       <use x="127.24609375" xlink:href="#BitstreamVeraSans-Roman-30"/>
      </g>
     </g>
    </g>
    <g id="xtick_4">
     <g id="line2d_9">
      <g>
       <use style="stroke:#000000;stroke-width:0.5;" x="403.2" xlink:href="#mc7db9fdffb" y="259.2"/>
      </g>
     </g>
     <g id="line2d_10">
      <g>
       <use style="stroke:#000000;stroke-width:0.5;" x="403.2" xlink:href="#m5a7d422ac3" y="28.8"/>
      </g>
     </g>
     <g id="text_4">
      <!-- 150 -->
      <g transform="translate(394.5375 270.7984375)scale(0.1 -0.1)">
       <use xlink:href="#BitstreamVeraSans-Roman-31"/>
       <use x="63.623046875" xlink:href="#BitstreamVeraSans-Roman-35"/>
       <use x="127.24609375" xlink:href="#BitstreamVeraSans-Roman-30"/>
      </g>
     </g>
    </g>
    <g id="xtick_5">
     <g id="line2d_11">
      <g>
       <use style="stroke:#000000;stroke-width:0.5;" x="518.4" xlink:href="#mc7db9fdffb" y="259.2"/>
      </g>
     </g>
     <g id="line2d_12">
      <g>
       <use style="stroke:#000000;stroke-width:0.5;" x="518.4" xlink:href="#m5a7d422ac3" y="28.8"/>
      </g>
     </g>
     <g id="text_5">
      <!-- 200 -->
      <defs>
       <path d="
M19.1875 8.29688
L53.6094 8.29688
L53.6094 0
L7.32812 0
L7.32812 8.29688
Q12.9375 14.1094 22.625 23.8906
Q32.3281 33.6875 34.8125 36.5312
Q39.5469 41.8438 41.4219 45.5312
Q43.3125 49.2188 43.3125 52.7812
Q43.3125 58.5938 39.2344 62.25
Q35.1562 65.9219 28.6094 65.9219
Q23.9688 65.9219 18.8125 64.3125
Q13.6719 62.7031 7.8125 59.4219
L7.8125 69.3906
Q13.7656 71.7812 18.9375 73
Q24.125 74.2188 28.4219 74.2188
Q39.75 74.2188 46.4844 68.5469
Q53.2188 62.8906 53.2188 53.4219
Q53.2188 48.9219 51.5312 44.8906
Q49.8594 40.875 45.4062 35.4062
Q44.1875 33.9844 37.6406 27.2188
Q31.1094 20.4531 19.1875 8.29688" id="BitstreamVeraSans-Roman-32"/>
      </defs>
      <g transform="translate(509.5546875 270.7984375)scale(0.1 -0.1)">
       <use xlink:href="#BitstreamVeraSans-Roman-32"/>
       <use x="63.623046875" xlink:href="#BitstreamVeraSans-Roman-30"/>
       <use x="127.24609375" xlink:href="#BitstreamVeraSans-Roman-30"/>
      </g>
     </g>
    </g>
    <g id="text_6">
     <!-- Epochs -->
     <defs>
      <path d="
M54.8906 33.0156
L54.8906 0
L45.9062 0
L45.9062 32.7188
Q45.9062 40.4844 42.875 44.3281
Q39.8438 48.1875 33.7969 48.1875
Q26.5156 48.1875 22.3125 43.5469
Q18.1094 38.9219 18.1094 30.9062
L18.1094 0
L9.07812 0
L9.07812 75.9844
L18.1094 75.9844
L18.1094 46.1875
Q21.3438 51.125 25.7031 53.5625
Q30.0781 56 35.7969 56
Q45.2188 56 50.0469 50.1719
Q54.8906 44.3438 54.8906 33.0156" id="BitstreamVeraSans-Roman-68"/>
      <path d="
M9.8125 72.9062
L55.9062 72.9062
L55.9062 64.5938
L19.6719 64.5938
L19.6719 43.0156
L54.3906 43.0156
L54.3906 34.7188
L19.6719 34.7188
L19.6719 8.29688
L56.7812 8.29688
L56.7812 0
L9.8125 0
z
" id="BitstreamVeraSans-Roman-45"/>
      <path d="
M48.7812 52.5938
L48.7812 44.1875
Q44.9688 46.2969 41.1406 47.3438
Q37.3125 48.3906 33.4062 48.3906
Q24.6562 48.3906 19.8125 42.8438
Q14.9844 37.3125 14.9844 27.2969
Q14.9844 17.2812 19.8125 11.7344
Q24.6562 6.20312 33.4062 6.20312
Q37.3125 6.20312 41.1406 7.25
Q44.9688 8.29688 48.7812 10.4062
L48.7812 2.09375
Q45.0156 0.34375 40.9844 -0.53125
Q36.9688 -1.42188 32.4219 -1.42188
Q20.0625 -1.42188 12.7812 6.34375
Q5.51562 14.1094 5.51562 27.2969
Q5.51562 40.6719 12.8594 48.3281
Q20.2188 56 33.0156 56
Q37.1562 56 41.1094 55.1406
Q45.0625 54.2969 48.7812 52.5938" id="BitstreamVeraSans-Roman-63"/>
      <path d="
M18.1094 8.20312
L18.1094 -20.7969
L9.07812 -20.7969
L9.07812 54.6875
L18.1094 54.6875
L18.1094 46.3906
Q20.9531 51.2656 25.2656 53.625
Q29.5938 56 35.5938 56
Q45.5625 56 51.7812 48.0938
Q58.0156 40.1875 58.0156 27.2969
Q58.0156 14.4062 51.7812 6.48438
Q45.5625 -1.42188 35.5938 -1.42188
Q29.5938 -1.42188 25.2656 0.953125
Q20.9531 3.32812 18.1094 8.20312
M48.6875 27.2969
Q48.6875 37.2031 44.6094 42.8438
Q40.5312 48.4844 33.4062 48.4844
Q26.2656 48.4844 22.1875 42.8438
Q18.1094 37.2031 18.1094 27.2969
Q18.1094 17.3906 22.1875 11.75
Q26.2656 6.10938 33.4062 6.10938
Q40.5312 6.10938 44.6094 11.75
Q48.6875 17.3906 48.6875 27.2969" id="BitstreamVeraSans-Roman-70"/>
      <path d="
M44.2812 53.0781
L44.2812 44.5781
Q40.4844 46.5312 36.375 47.5
Q32.2812 48.4844 27.875 48.4844
Q21.1875 48.4844 17.8438 46.4375
Q14.5 44.3906 14.5 40.2812
Q14.5 37.1562 16.8906 35.375
Q19.2812 33.5938 26.5156 31.9844
L29.5938 31.2969
Q39.1562 29.25 43.1875 25.5156
Q47.2188 21.7812 47.2188 15.0938
Q47.2188 7.46875 41.1875 3.01562
Q35.1562 -1.42188 24.6094 -1.42188
Q20.2188 -1.42188 15.4531 -0.5625
Q10.6875 0.296875 5.42188 2
L5.42188 11.2812
Q10.4062 8.6875 15.2344 7.39062
Q20.0625 6.10938 24.8125 6.10938
Q31.1562 6.10938 34.5625 8.28125
Q37.9844 10.4531 37.9844 14.4062
Q37.9844 18.0625 35.5156 20.0156
Q33.0625 21.9688 24.7031 23.7812
L21.5781 24.5156
Q13.2344 26.2656 9.51562 29.9062
Q5.8125 33.5469 5.8125 39.8906
Q5.8125 47.6094 11.2812 51.7969
Q16.75 56 26.8125 56
Q31.7812 56 36.1719 55.2656
Q40.5781 54.5469 44.2812 53.0781" id="BitstreamVeraSans-Roman-73"/>
      <path d="
M30.6094 48.3906
Q23.3906 48.3906 19.1875 42.75
Q14.9844 37.1094 14.9844 27.2969
Q14.9844 17.4844 19.1562 11.8438
Q23.3438 6.20312 30.6094 6.20312
Q37.7969 6.20312 41.9844 11.8594
Q46.1875 17.5312 46.1875 27.2969
Q46.1875 37.0156 41.9844 42.7031
Q37.7969 48.3906 30.6094 48.3906
M30.6094 56
Q42.3281 56 49.0156 48.375
Q55.7188 40.7656 55.7188 27.2969
Q55.7188 13.875 49.0156 6.21875
Q42.3281 -1.42188 30.6094 -1.42188
Q18.8438 -1.42188 12.1719 6.21875
Q5.51562 13.875 5.51562 27.2969
Q5.51562 40.7656 12.1719 48.375
Q18.8438 56 30.6094 56" id="BitstreamVeraSans-Roman-6f"/>
     </defs>
     <g transform="translate(270.81875 285.4765625)scale(0.1 -0.1)">
      <use xlink:href="#BitstreamVeraSans-Roman-45"/>
      <use x="63.18359375" xlink:href="#BitstreamVeraSans-Roman-70"/>
      <use x="126.66015625" xlink:href="#BitstreamVeraSans-Roman-6f"/>
      <use x="187.841796875" xlink:href="#BitstreamVeraSans-Roman-63"/>
      <use x="242.822265625" xlink:href="#BitstreamVeraSans-Roman-68"/>
      <use x="306.201171875" xlink:href="#BitstreamVeraSans-Roman-73"/>
     </g>
    </g>
   </g>
   <g id="matplotlib.axis_2">
    <g id="ytick_1">
     <g id="line2d_13">
      <defs>
       <path d="
M0 0
L4 0" id="md7965d1ba0" style="stroke:#000000;stroke-width:0.5;"/>
      </defs>
      <g>
       <use style="stroke:#000000;stroke-width:0.5;" x="57.6" xlink:href="#md7965d1ba0" y="259.2"/>
      </g>
     </g>
     <g id="line2d_14">
      <defs>
       <path d="
M0 0
L-4 0" id="md9a1c1a7cd" style="stroke:#000000;stroke-width:0.5;"/>
      </defs>
      <g>
       <use style="stroke:#000000;stroke-width:0.5;" x="518.4" xlink:href="#md9a1c1a7cd" y="259.2"/>
      </g>
     </g>
     <g id="text_7">
      <!-- 5 -->
      <g transform="translate(48.8828125 261.959375)scale(0.1 -0.1)">
       <use xlink:href="#BitstreamVeraSans-Roman-35"/>
      </g>
     </g>
    </g>
    <g id="ytick_2">
     <g id="line2d_15">
      <g>
       <use style="stroke:#000000;stroke-width:0.5;" x="57.6" xlink:href="#md7965d1ba0" y="220.8"/>
      </g>
     </g>
     <g id="line2d_16">
      <g>
       <use style="stroke:#000000;stroke-width:0.5;" x="518.4" xlink:href="#md9a1c1a7cd" y="220.8"/>
      </g>
     </g>
     <g id="text_8">
      <!-- 10 -->
      <g transform="translate(42.6375 223.559375)scale(0.1 -0.1)">
       <use xlink:href="#BitstreamVeraSans-Roman-31"/>
       <use x="63.623046875" xlink:href="#BitstreamVeraSans-Roman-30"/>
      </g>
     </g>
    </g>
    <g id="ytick_3">
     <g id="line2d_17">
      <g>
       <use style="stroke:#000000;stroke-width:0.5;" x="57.6" xlink:href="#md7965d1ba0" y="182.4"/>
      </g>
     </g>
     <g id="line2d_18">
      <g>
       <use style="stroke:#000000;stroke-width:0.5;" x="518.4" xlink:href="#md9a1c1a7cd" y="182.4"/>
      </g>
     </g>
     <g id="text_9">
      <!-- 15 -->
      <g transform="translate(42.846875 185.159375)scale(0.1 -0.1)">
       <use xlink:href="#BitstreamVeraSans-Roman-31"/>
       <use x="63.623046875" xlink:href="#BitstreamVeraSans-Roman-35"/>
      </g>
     </g>
    </g>
    <g id="ytick_4">
     <g id="line2d_19">
      <g>
       <use style="stroke:#000000;stroke-width:0.5;" x="57.6" xlink:href="#md7965d1ba0" y="144.0"/>
      </g>
     </g>
     <g id="line2d_20">
      <g>
       <use style="stroke:#000000;stroke-width:0.5;" x="518.4" xlink:href="#md9a1c1a7cd" y="144.0"/>
      </g>
     </g>
     <g id="text_10">
      <!-- 20 -->
      <g transform="translate(42.271875 146.759375)scale(0.1 -0.1)">
       <use xlink:href="#BitstreamVeraSans-Roman-32"/>
       <use x="63.623046875" xlink:href="#BitstreamVeraSans-Roman-30"/>
      </g>
     </g>
    </g>
    <g id="ytick_5">
     <g id="line2d_21">
      <g>
       <use style="stroke:#000000;stroke-width:0.5;" x="57.6" xlink:href="#md7965d1ba0" y="105.6"/>
      </g>
     </g>
     <g id="line2d_22">
      <g>
       <use style="stroke:#000000;stroke-width:0.5;" x="518.4" xlink:href="#md9a1c1a7cd" y="105.6"/>
      </g>
     </g>
     <g id="text_11">
      <!-- 25 -->
      <g transform="translate(42.48125 108.359375)scale(0.1 -0.1)">
       <use xlink:href="#BitstreamVeraSans-Roman-32"/>
       <use x="63.623046875" xlink:href="#BitstreamVeraSans-Roman-35"/>
      </g>
     </g>
    </g>
    <g id="ytick_6">
     <g id="line2d_23">
      <g>
       <use style="stroke:#000000;stroke-width:0.5;" x="57.6" xlink:href="#md7965d1ba0" y="67.2"/>
      </g>
     </g>
     <g id="line2d_24">
      <g>
       <use style="stroke:#000000;stroke-width:0.5;" x="518.4" xlink:href="#md9a1c1a7cd" y="67.2"/>
      </g>
     </g>
     <g id="text_12">
      <!-- 30 -->
      <defs>
       <path d="
M40.5781 39.3125
Q47.6562 37.7969 51.625 33
Q55.6094 28.2188 55.6094 21.1875
Q55.6094 10.4062 48.1875 4.48438
Q40.7656 -1.42188 27.0938 -1.42188
Q22.5156 -1.42188 17.6562 -0.515625
Q12.7969 0.390625 7.625 2.20312
L7.625 11.7188
Q11.7188 9.32812 16.5938 8.10938
Q21.4844 6.89062 26.8125 6.89062
Q36.0781 6.89062 40.9375 10.5469
Q45.7969 14.2031 45.7969 21.1875
Q45.7969 27.6406 41.2812 31.2656
Q36.7656 34.9062 28.7188 34.9062
L20.2188 34.9062
L20.2188 43.0156
L29.1094 43.0156
Q36.375 43.0156 40.2344 45.9219
Q44.0938 48.8281 44.0938 54.2969
Q44.0938 59.9062 40.1094 62.9062
Q36.1406 65.9219 28.7188 65.9219
Q24.6562 65.9219 20.0156 65.0312
Q15.375 64.1562 9.8125 62.3125
L9.8125 71.0938
Q15.4375 72.6562 20.3438 73.4375
Q25.25 74.2188 29.5938 74.2188
Q40.8281 74.2188 47.3594 69.1094
Q53.9062 64.0156 53.9062 55.3281
Q53.9062 49.2656 50.4375 45.0938
Q46.9688 40.9219 40.5781 39.3125" id="BitstreamVeraSans-Roman-33"/>
      </defs>
      <g transform="translate(42.3015625 69.959375)scale(0.1 -0.1)">
       <use xlink:href="#BitstreamVeraSans-Roman-33"/>
       <use x="63.623046875" xlink:href="#BitstreamVeraSans-Roman-30"/>
      </g>
     </g>
    </g>
    <g id="ytick_7">
     <g id="line2d_25">
      <g>
       <use style="stroke:#000000;stroke-width:0.5;" x="57.6" xlink:href="#md7965d1ba0" y="28.8"/>
      </g>
     </g>
     <g id="line2d_26">
      <g>
       <use style="stroke:#000000;stroke-width:0.5;" x="518.4" xlink:href="#md9a1c1a7cd" y="28.8"/>
      </g>
     </g>
     <g id="text_13">
      <!-- 35 -->
      <g transform="translate(42.5109375 31.559375)scale(0.1 -0.1)">
       <use xlink:href="#BitstreamVeraSans-Roman-33"/>
       <use x="63.623046875" xlink:href="#BitstreamVeraSans-Roman-35"/>
      </g>
     </g>
    </g>
    <g id="text_14">
     <!-- Log perplexity -->
     <defs>
      <path d="
M18.3125 70.2188
L18.3125 54.6875
L36.8125 54.6875
L36.8125 47.7031
L18.3125 47.7031
L18.3125 18.0156
Q18.3125 11.3281 20.1406 9.42188
Q21.9688 7.51562 27.5938 7.51562
L36.8125 7.51562
L36.8125 0
L27.5938 0
Q17.1875 0 13.2344 3.875
Q9.28125 7.76562 9.28125 18.0156
L9.28125 47.7031
L2.6875 47.7031
L2.6875 54.6875
L9.28125 54.6875
L9.28125 70.2188
z
" id="BitstreamVeraSans-Roman-74"/>
      <path d="
M54.8906 54.6875
L35.1094 28.0781
L55.9062 0
L45.3125 0
L29.3906 21.4844
L13.4844 0
L2.875 0
L24.125 28.6094
L4.6875 54.6875
L15.2812 54.6875
L29.7812 35.2031
L44.2812 54.6875
z
" id="BitstreamVeraSans-Roman-78"/>
      <path d="
M9.42188 54.6875
L18.4062 54.6875
L18.4062 0
L9.42188 0
z

M9.42188 75.9844
L18.4062 75.9844
L18.4062 64.5938
L9.42188 64.5938
z
" id="BitstreamVeraSans-Roman-69"/>
      <path d="
M9.8125 72.9062
L19.6719 72.9062
L19.6719 8.29688
L55.1719 8.29688
L55.1719 0
L9.8125 0
z
" id="BitstreamVeraSans-Roman-4c"/>
      <path id="BitstreamVeraSans-Roman-20"/>
      <path d="
M9.42188 75.9844
L18.4062 75.9844
L18.4062 0
L9.42188 0
z
" id="BitstreamVeraSans-Roman-6c"/>
      <path d="
M32.1719 -5.07812
Q28.375 -14.8438 24.75 -17.8125
Q21.1406 -20.7969 15.0938 -20.7969
L7.90625 -20.7969
L7.90625 -13.2812
L13.1875 -13.2812
Q16.8906 -13.2812 18.9375 -11.5156
Q21 -9.76562 23.4844 -3.21875
L25.0938 0.875
L2.98438 54.6875
L12.5 54.6875
L29.5938 11.9219
L46.6875 54.6875
L56.2031 54.6875
z
" id="BitstreamVeraSans-Roman-79"/>
      <path d="
M41.1094 46.2969
Q39.5938 47.1719 37.8125 47.5781
Q36.0312 48 33.8906 48
Q26.2656 48 22.1875 43.0469
Q18.1094 38.0938 18.1094 28.8125
L18.1094 0
L9.07812 0
L9.07812 54.6875
L18.1094 54.6875
L18.1094 46.1875
Q20.9531 51.1719 25.4844 53.5781
Q30.0312 56 36.5312 56
Q37.4531 56 38.5781 55.875
Q39.7031 55.7656 41.0625 55.5156
z
" id="BitstreamVeraSans-Roman-72"/>
      <path d="
M45.4062 27.9844
Q45.4062 37.75 41.375 43.1094
Q37.3594 48.4844 30.0781 48.4844
Q22.8594 48.4844 18.8281 43.1094
Q14.7969 37.75 14.7969 27.9844
Q14.7969 18.2656 18.8281 12.8906
Q22.8594 7.51562 30.0781 7.51562
Q37.3594 7.51562 41.375 12.8906
Q45.4062 18.2656 45.4062 27.9844
M54.3906 6.78125
Q54.3906 -7.17188 48.1875 -13.9844
Q42 -20.7969 29.2031 -20.7969
Q24.4688 -20.7969 20.2656 -20.0938
Q16.0625 -19.3906 12.1094 -17.9219
L12.1094 -9.1875
Q16.0625 -11.3281 19.9219 -12.3438
Q23.7812 -13.375 27.7812 -13.375
Q36.625 -13.375 41.0156 -8.76562
Q45.4062 -4.15625 45.4062 5.17188
L45.4062 9.625
Q42.625 4.78125 38.2812 2.39062
Q33.9375 0 27.875 0
Q17.8281 0 11.6719 7.65625
Q5.51562 15.3281 5.51562 27.9844
Q5.51562 40.6719 11.6719 48.3281
Q17.8281 56 27.875 56
Q33.9375 56 38.2812 53.6094
Q42.625 51.2188 45.4062 46.3906
L45.4062 54.6875
L54.3906 54.6875
z
" id="BitstreamVeraSans-Roman-67"/>
      <path d="
M56.2031 29.5938
L56.2031 25.2031
L14.8906 25.2031
Q15.4844 15.9219 20.4844 11.0625
Q25.4844 6.20312 34.4219 6.20312
Q39.5938 6.20312 44.4531 7.46875
Q49.3125 8.73438 54.1094 11.2812
L54.1094 2.78125
Q49.2656 0.734375 44.1875 -0.34375
Q39.1094 -1.42188 33.8906 -1.42188
Q20.7969 -1.42188 13.1562 6.1875
Q5.51562 13.8125 5.51562 26.8125
Q5.51562 40.2344 12.7656 48.1094
Q20.0156 56 32.3281 56
Q43.3594 56 49.7812 48.8906
Q56.2031 41.7969 56.2031 29.5938
M47.2188 32.2344
Q47.125 39.5938 43.0938 43.9844
Q39.0625 48.3906 32.4219 48.3906
Q24.9062 48.3906 20.3906 44.1406
Q15.875 39.8906 15.1875 32.1719
z
" id="BitstreamVeraSans-Roman-65"/>
     </defs>
     <g transform="translate(35.1921875 179.4984375)rotate(-90.0)scale(0.1 -0.1)">
      <use xlink:href="#BitstreamVeraSans-Roman-4c"/>
      <use x="53.962890625" xlink:href="#BitstreamVeraSans-Roman-6f"/>
      <use x="115.14453125" xlink:href="#BitstreamVeraSans-Roman-67"/>
      <use x="178.62109375" xlink:href="#BitstreamVeraSans-Roman-20"/>
      <use x="210.408203125" xlink:href="#BitstreamVeraSans-Roman-70"/>
      <use x="273.884765625" xlink:href="#BitstreamVeraSans-Roman-65"/>
      <use x="335.408203125" xlink:href="#BitstreamVeraSans-Roman-72"/>
      <use x="376.521484375" xlink:href="#BitstreamVeraSans-Roman-70"/>
      <use x="439.998046875" xlink:href="#BitstreamVeraSans-Roman-6c"/>
      <use x="467.78125" xlink:href="#BitstreamVeraSans-Roman-65"/>
      <use x="527.5546875" xlink:href="#BitstreamVeraSans-Roman-78"/>
      <use x="586.734375" xlink:href="#BitstreamVeraSans-Roman-69"/>
      <use x="614.517578125" xlink:href="#BitstreamVeraSans-Roman-74"/>
      <use x="653.7265625" xlink:href="#BitstreamVeraSans-Roman-79"/>
     </g>
    </g>
   </g>
   <g id="text_15">
    <!-- Training error for Stochastic Gradient Descent of RSM -->
    <defs>
     <path d="
M-0.296875 72.9062
L61.375 72.9062
L61.375 64.5938
L35.5 64.5938
L35.5 0
L25.5938 0
L25.5938 64.5938
L-0.296875 64.5938
z
" id="BitstreamVeraSans-Roman-54"/>
     <path d="
M19.6719 64.7969
L19.6719 8.10938
L31.5938 8.10938
Q46.6875 8.10938 53.6875 14.9375
Q60.6875 21.7812 60.6875 36.5312
Q60.6875 51.1719 53.6875 57.9844
Q46.6875 64.7969 31.5938 64.7969
z

M9.8125 72.9062
L30.0781 72.9062
Q51.2656 72.9062 61.1719 64.0938
Q71.0938 55.2812 71.0938 36.5312
Q71.0938 17.6719 61.125 8.82812
Q51.1719 0 30.0781 0
L9.8125 0
z
" id="BitstreamVeraSans-Roman-44"/>
     <path d="
M59.5156 10.4062
L59.5156 29.9844
L43.4062 29.9844
L43.4062 38.0938
L69.2812 38.0938
L69.2812 6.78125
Q63.5781 2.73438 56.6875 0.65625
Q49.8125 -1.42188 42 -1.42188
Q24.9062 -1.42188 15.25 8.5625
Q5.60938 18.5625 5.60938 36.375
Q5.60938 54.25 15.25 64.2344
Q24.9062 74.2188 42 74.2188
Q49.125 74.2188 55.5469 72.4531
Q61.9688 70.7031 67.3906 67.2812
L67.3906 56.7812
Q61.9219 61.4219 55.7656 63.7656
Q49.6094 66.1094 42.8281 66.1094
Q29.4375 66.1094 22.7188 58.6406
Q16.0156 51.1719 16.0156 36.375
Q16.0156 21.625 22.7188 14.1562
Q29.4375 6.6875 42.8281 6.6875
Q48.0469 6.6875 52.1406 7.59375
Q56.25 8.5 59.5156 10.4062" id="BitstreamVeraSans-Roman-47"/>
     <path d="
M37.1094 75.9844
L37.1094 68.5
L28.5156 68.5
Q23.6875 68.5 21.7969 66.5469
Q19.9219 64.5938 19.9219 59.5156
L19.9219 54.6875
L34.7188 54.6875
L34.7188 47.7031
L19.9219 47.7031
L19.9219 0
L10.8906 0
L10.8906 47.7031
L2.29688 47.7031
L2.29688 54.6875
L10.8906 54.6875
L10.8906 58.5
Q10.8906 67.625 15.1406 71.7969
Q19.3906 75.9844 28.6094 75.9844
z
" id="BitstreamVeraSans-Roman-66"/>
     <path d="
M9.8125 72.9062
L24.5156 72.9062
L43.1094 23.2969
L61.8125 72.9062
L76.5156 72.9062
L76.5156 0
L66.8906 0
L66.8906 64.0156
L48.0938 14.0156
L38.1875 14.0156
L19.3906 64.0156
L19.3906 0
L9.8125 0
z
" id="BitstreamVeraSans-Roman-4d"/>
     <path d="
M34.2812 27.4844
Q23.3906 27.4844 19.1875 25
Q14.9844 22.5156 14.9844 16.5
Q14.9844 11.7188 18.1406 8.90625
Q21.2969 6.10938 26.7031 6.10938
Q34.1875 6.10938 38.7031 11.4062
Q43.2188 16.7031 43.2188 25.4844
L43.2188 27.4844
z

M52.2031 31.2031
L52.2031 0
L43.2188 0
L43.2188 8.29688
Q40.1406 3.32812 35.5469 0.953125
Q30.9531 -1.42188 24.3125 -1.42188
Q15.9219 -1.42188 10.9531 3.29688
Q6 8.01562 6 15.9219
Q6 25.1406 12.1719 29.8281
Q18.3594 34.5156 30.6094 34.5156
L43.2188 34.5156
L43.2188 35.4062
Q43.2188 41.6094 39.1406 45
Q35.0625 48.3906 27.6875 48.3906
Q23 48.3906 18.5469 47.2656
Q14.1094 46.1406 10.0156 43.8906
L10.0156 52.2031
Q14.9375 54.1094 19.5781 55.0469
Q24.2188 56 28.6094 56
Q40.4844 56 46.3438 49.8438
Q52.2031 43.7031 52.2031 31.2031" id="BitstreamVeraSans-Roman-61"/>
     <path d="
M53.5156 70.5156
L53.5156 60.8906
Q47.9062 63.5781 42.9219 64.8906
Q37.9375 66.2188 33.2969 66.2188
Q25.25 66.2188 20.875 63.0938
Q16.5 59.9688 16.5 54.2031
Q16.5 49.3594 19.4062 46.8906
Q22.3125 44.4375 30.4219 42.9219
L36.375 41.7031
Q47.4062 39.5938 52.6562 34.2969
Q57.9062 29 57.9062 20.125
Q57.9062 9.51562 50.7969 4.04688
Q43.7031 -1.42188 29.9844 -1.42188
Q24.8125 -1.42188 18.9688 -0.25
Q13.1406 0.921875 6.89062 3.21875
L6.89062 13.375
Q12.8906 10.0156 18.6562 8.29688
Q24.4219 6.59375 29.9844 6.59375
Q38.4219 6.59375 43.0156 9.90625
Q47.6094 13.2344 47.6094 19.3906
Q47.6094 24.75 44.3125 27.7812
Q41.0156 30.8125 33.5 32.3281
L27.4844 33.5
Q16.4531 35.6875 11.5156 40.375
Q6.59375 45.0625 6.59375 53.4219
Q6.59375 63.0938 13.4062 68.6562
Q20.2188 74.2188 32.1719 74.2188
Q37.3125 74.2188 42.625 73.2812
Q47.9531 72.3594 53.5156 70.5156" id="BitstreamVeraSans-Roman-53"/>
     <path d="
M44.3906 34.1875
Q47.5625 33.1094 50.5625 29.5938
Q53.5625 26.0781 56.5938 19.9219
L66.6094 0
L56 0
L46.6875 18.7031
Q43.0625 26.0312 39.6719 28.4219
Q36.2812 30.8125 30.4219 30.8125
L19.6719 30.8125
L19.6719 0
L9.8125 0
L9.8125 72.9062
L32.0781 72.9062
Q44.5781 72.9062 50.7344 67.6719
Q56.8906 62.4531 56.8906 51.9062
Q56.8906 45.0156 53.6875 40.4688
Q50.4844 35.9375 44.3906 34.1875
M19.6719 64.7969
L19.6719 38.9219
L32.0781 38.9219
Q39.2031 38.9219 42.8438 42.2188
Q46.4844 45.5156 46.4844 51.9062
Q46.4844 58.2969 42.8438 61.5469
Q39.2031 64.7969 32.0781 64.7969
z
" id="BitstreamVeraSans-Roman-52"/>
     <path d="
M45.4062 46.3906
L45.4062 75.9844
L54.3906 75.9844
L54.3906 0
L45.4062 0
L45.4062 8.20312
Q42.5781 3.32812 38.25 0.953125
Q33.9375 -1.42188 27.875 -1.42188
Q17.9688 -1.42188 11.7344 6.48438
Q5.51562 14.4062 5.51562 27.2969
Q5.51562 40.1875 11.7344 48.0938
Q17.9688 56 27.875 56
Q33.9375 56 38.25 53.625
Q42.5781 51.2656 45.4062 46.3906
M14.7969 27.2969
Q14.7969 17.3906 18.875 11.75
Q22.9531 6.10938 30.0781 6.10938
Q37.2031 6.10938 41.2969 11.75
Q45.4062 17.3906 45.4062 27.2969
Q45.4062 37.2031 41.2969 42.8438
Q37.2031 48.4844 30.0781 48.4844
Q22.9531 48.4844 18.875 42.8438
Q14.7969 37.2031 14.7969 27.2969" id="BitstreamVeraSans-Roman-64"/>
     <path d="
M54.8906 33.0156
L54.8906 0
L45.9062 0
L45.9062 32.7188
Q45.9062 40.4844 42.875 44.3281
Q39.8438 48.1875 33.7969 48.1875
Q26.5156 48.1875 22.3125 43.5469
Q18.1094 38.9219 18.1094 30.9062
L18.1094 0
L9.07812 0
L9.07812 54.6875
L18.1094 54.6875
L18.1094 46.1875
Q21.3438 51.125 25.7031 53.5625
Q30.0781 56 35.7969 56
Q45.2188 56 50.0469 50.1719
Q54.8906 44.3438 54.8906 33.0156" id="BitstreamVeraSans-Roman-6e"/>
    </defs>
    <g transform="translate(128.085 23.8)scale(0.12 -0.12)">
     <use xlink:href="#BitstreamVeraSans-Roman-54"/>
     <use x="46.333984375" xlink:href="#BitstreamVeraSans-Roman-72"/>
     <use x="87.447265625" xlink:href="#BitstreamVeraSans-Roman-61"/>
     <use x="148.7265625" xlink:href="#BitstreamVeraSans-Roman-69"/>
     <use x="176.509765625" xlink:href="#BitstreamVeraSans-Roman-6e"/>
     <use x="239.888671875" xlink:href="#BitstreamVeraSans-Roman-69"/>
     <use x="267.671875" xlink:href="#BitstreamVeraSans-Roman-6e"/>
     <use x="331.05078125" xlink:href="#BitstreamVeraSans-Roman-67"/>
     <use x="394.52734375" xlink:href="#BitstreamVeraSans-Roman-20"/>
     <use x="426.314453125" xlink:href="#BitstreamVeraSans-Roman-65"/>
     <use x="487.837890625" xlink:href="#BitstreamVeraSans-Roman-72"/>
     <use x="527.201171875" xlink:href="#BitstreamVeraSans-Roman-72"/>
     <use x="566.064453125" xlink:href="#BitstreamVeraSans-Roman-6f"/>
     <use x="627.24609375" xlink:href="#BitstreamVeraSans-Roman-72"/>
     <use x="668.359375" xlink:href="#BitstreamVeraSans-Roman-20"/>
     <use x="700.146484375" xlink:href="#BitstreamVeraSans-Roman-66"/>
     <use x="735.3515625" xlink:href="#BitstreamVeraSans-Roman-6f"/>
     <use x="796.533203125" xlink:href="#BitstreamVeraSans-Roman-72"/>
     <use x="837.646484375" xlink:href="#BitstreamVeraSans-Roman-20"/>
     <use x="869.43359375" xlink:href="#BitstreamVeraSans-Roman-53"/>
     <use x="932.91015625" xlink:href="#BitstreamVeraSans-Roman-74"/>
     <use x="972.119140625" xlink:href="#BitstreamVeraSans-Roman-6f"/>
     <use x="1033.30078125" xlink:href="#BitstreamVeraSans-Roman-63"/>
     <use x="1088.28125" xlink:href="#BitstreamVeraSans-Roman-68"/>
     <use x="1151.66015625" xlink:href="#BitstreamVeraSans-Roman-61"/>
     <use x="1212.939453125" xlink:href="#BitstreamVeraSans-Roman-73"/>
     <use x="1265.0390625" xlink:href="#BitstreamVeraSans-Roman-74"/>
     <use x="1304.248046875" xlink:href="#BitstreamVeraSans-Roman-69"/>
     <use x="1332.03125" xlink:href="#BitstreamVeraSans-Roman-63"/>
     <use x="1387.01171875" xlink:href="#BitstreamVeraSans-Roman-20"/>
     <use x="1418.798828125" xlink:href="#BitstreamVeraSans-Roman-47"/>
     <use x="1496.2890625" xlink:href="#BitstreamVeraSans-Roman-72"/>
     <use x="1537.40234375" xlink:href="#BitstreamVeraSans-Roman-61"/>
     <use x="1598.681640625" xlink:href="#BitstreamVeraSans-Roman-64"/>
     <use x="1662.158203125" xlink:href="#BitstreamVeraSans-Roman-69"/>
     <use x="1689.94140625" xlink:href="#BitstreamVeraSans-Roman-65"/>
     <use x="1751.46484375" xlink:href="#BitstreamVeraSans-Roman-6e"/>
     <use x="1814.84375" xlink:href="#BitstreamVeraSans-Roman-74"/>
     <use x="1854.052734375" xlink:href="#BitstreamVeraSans-Roman-20"/>
     <use x="1885.83984375" xlink:href="#BitstreamVeraSans-Roman-44"/>
     <use x="1962.841796875" xlink:href="#BitstreamVeraSans-Roman-65"/>
     <use x="2024.365234375" xlink:href="#BitstreamVeraSans-Roman-73"/>
     <use x="2076.46484375" xlink:href="#BitstreamVeraSans-Roman-63"/>
     <use x="2131.4453125" xlink:href="#BitstreamVeraSans-Roman-65"/>
     <use x="2192.96875" xlink:href="#BitstreamVeraSans-Roman-6e"/>
     <use x="2256.34765625" xlink:href="#BitstreamVeraSans-Roman-74"/>
     <use x="2295.556640625" xlink:href="#BitstreamVeraSans-Roman-20"/>
     <use x="2327.34375" xlink:href="#BitstreamVeraSans-Roman-6f"/>
     <use x="2388.525390625" xlink:href="#BitstreamVeraSans-Roman-66"/>
     <use x="2423.73046875" xlink:href="#BitstreamVeraSans-Roman-20"/>
     <use x="2455.517578125" xlink:href="#BitstreamVeraSans-Roman-52"/>
     <use x="2525.0" xlink:href="#BitstreamVeraSans-Roman-53"/>
     <use x="2588.4765625" xlink:href="#BitstreamVeraSans-Roman-4d"/>
    </g>
   </g>
   <g id="legend_1">
    <g id="patch_7">
     <path d="
M273.45 76.4
L512.4 76.4
L512.4 34.8
L273.45 34.8
z
" style="fill:#ffffff;stroke:#000000;stroke-linejoin:miter;"/>
    </g>
    <g id="line2d_27">
     <path d="
M281.85 45.4
L298.65 45.4" style="fill:none;stroke:#0000ff;stroke-linecap:square;"/>
    </g>
    <g id="line2d_28"/>
    <g id="text_16">
     <!-- SGD -->
     <g transform="translate(311.85 49.6)scale(0.12 -0.12)">
      <use xlink:href="#BitstreamVeraSans-Roman-53"/>
      <use x="63.4765625" xlink:href="#BitstreamVeraSans-Roman-47"/>
      <use x="140.966796875" xlink:href="#BitstreamVeraSans-Roman-44"/>
     </g>
    </g>
    <g id="line2d_29">
     <path d="
M281.85 64.4
L298.65 64.4" style="fill:none;stroke:#008000;stroke-linecap:square;"/>
    </g>
    <g id="line2d_30"/>
    <g id="text_17">
     <!-- SGD w/. Predictive Variance Red. -->
     <defs>
      <path d="
M25.3906 72.9062
L33.6875 72.9062
L8.29688 -9.28125
L0 -9.28125
z
" id="BitstreamVeraSans-Roman-2f"/>
      <path d="
M10.6875 12.4062
L21 12.4062
L21 0
L10.6875 0
z
" id="BitstreamVeraSans-Roman-2e"/>
      <path d="
M28.6094 0
L0.78125 72.9062
L11.0781 72.9062
L34.1875 11.5312
L57.3281 72.9062
L67.5781 72.9062
L39.7969 0
z
" id="BitstreamVeraSans-Roman-56"/>
      <path d="
M19.6719 64.7969
L19.6719 37.4062
L32.0781 37.4062
Q38.9688 37.4062 42.7188 40.9688
Q46.4844 44.5312 46.4844 51.125
Q46.4844 57.6719 42.7188 61.2344
Q38.9688 64.7969 32.0781 64.7969
z

M9.8125 72.9062
L32.0781 72.9062
Q44.3438 72.9062 50.6094 67.3594
Q56.8906 61.8125 56.8906 51.125
Q56.8906 40.3281 50.6094 34.8125
Q44.3438 29.2969 32.0781 29.2969
L19.6719 29.2969
L19.6719 0
L9.8125 0
z
" id="BitstreamVeraSans-Roman-50"/>
      <path d="
M4.20312 54.6875
L13.1875 54.6875
L24.4219 12.0156
L35.5938 54.6875
L46.1875 54.6875
L57.4219 12.0156
L68.6094 54.6875
L77.5938 54.6875
L63.2812 0
L52.6875 0
L40.9219 44.8281
L29.1094 0
L18.5 0
z
" id="BitstreamVeraSans-Roman-77"/>
      <path d="
M2.98438 54.6875
L12.5 54.6875
L29.5938 8.79688
L46.6875 54.6875
L56.2031 54.6875
L35.6875 0
L23.4844 0
z
" id="BitstreamVeraSans-Roman-76"/>
     </defs>
     <g transform="translate(311.85 68.6)scale(0.12 -0.12)">
      <use xlink:href="#BitstreamVeraSans-Roman-53"/>
      <use x="63.4765625" xlink:href="#BitstreamVeraSans-Roman-47"/>
      <use x="140.966796875" xlink:href="#BitstreamVeraSans-Roman-44"/>
      <use x="217.96875" xlink:href="#BitstreamVeraSans-Roman-20"/>
      <use x="249.755859375" xlink:href="#BitstreamVeraSans-Roman-77"/>
      <use x="331.54296875" xlink:href="#BitstreamVeraSans-Roman-2f"/>
      <use x="365.234375" xlink:href="#BitstreamVeraSans-Roman-2e"/>
      <use x="397.021484375" xlink:href="#BitstreamVeraSans-Roman-20"/>
      <use x="428.80859375" xlink:href="#BitstreamVeraSans-Roman-50"/>
      <use x="487.361328125" xlink:href="#BitstreamVeraSans-Roman-72"/>
      <use x="526.224609375" xlink:href="#BitstreamVeraSans-Roman-65"/>
      <use x="587.748046875" xlink:href="#BitstreamVeraSans-Roman-64"/>
      <use x="651.224609375" xlink:href="#BitstreamVeraSans-Roman-69"/>
      <use x="679.0078125" xlink:href="#BitstreamVeraSans-Roman-63"/>
      <use x="733.98828125" xlink:href="#BitstreamVeraSans-Roman-74"/>
      <use x="773.197265625" xlink:href="#BitstreamVeraSans-Roman-69"/>
      <use x="800.98046875" xlink:href="#BitstreamVeraSans-Roman-76"/>
      <use x="860.16015625" xlink:href="#BitstreamVeraSans-Roman-65"/>
      <use x="921.68359375" xlink:href="#BitstreamVeraSans-Roman-20"/>
      <use x="953.470703125" xlink:href="#BitstreamVeraSans-Roman-56"/>
      <use x="1014.12890625" xlink:href="#BitstreamVeraSans-Roman-61"/>
      <use x="1075.408203125" xlink:href="#BitstreamVeraSans-Roman-72"/>
      <use x="1116.521484375" xlink:href="#BitstreamVeraSans-Roman-69"/>
      <use x="1144.3046875" xlink:href="#BitstreamVeraSans-Roman-61"/>
      <use x="1205.583984375" xlink:href="#BitstreamVeraSans-Roman-6e"/>
      <use x="1268.962890625" xlink:href="#BitstreamVeraSans-Roman-63"/>
      <use x="1323.943359375" xlink:href="#BitstreamVeraSans-Roman-65"/>
      <use x="1385.466796875" xlink:href="#BitstreamVeraSans-Roman-20"/>
      <use x="1417.25390625" xlink:href="#BitstreamVeraSans-Roman-52"/>
      <use x="1482.236328125" xlink:href="#BitstreamVeraSans-Roman-65"/>
      <use x="1543.759765625" xlink:href="#BitstreamVeraSans-Roman-64"/>
      <use x="1607.236328125" xlink:href="#BitstreamVeraSans-Roman-2e"/>
     </g>
    </g>
   </g>
  </g>
 </g>
 <defs>
  <clipPath id="p050c38148a">
   <rect height="230.4" width="460.8" x="57.6" y="28.8"/>
  </clipPath>
 </defs>
</svg>
